<svg width="555" height="388" xmlns="http://www.w3.org/2000/svg" xmlns:xlink="http://www.w3.org/1999/xlink"><defs><filter x="-21.1%" y="-17.3%" width="145.9%" height="152.2%" filterUnits="objectBoundingBox" id="c"><feOffset dy="4" in="SourceAlpha" result="shadowOffsetOuter1"/><feGaussianBlur stdDeviation="13" in="shadowOffsetOuter1" result="shadowBlurOuter1"/><feColorMatrix values="0 0 0 0 0 0 0 0 0 0 0 0 0 0 0 0 0 0 0.09 0" in="shadowBlurOuter1" result="shadowMatrixOuter1"/><feOffset dx="7" dy="48" in="SourceAlpha" result="shadowOffsetOuter2"/><feGaussianBlur stdDeviation="21" in="shadowOffsetOuter2" result="shadowBlurOuter2"/><feColorMatrix values="0 0 0 0 0 0 0 0 0 0 0 0 0 0 0 0 0 0 0.13 0" in="shadowBlurOuter2" result="shadowMatrixOuter2"/><feMerge><feMergeNode in="shadowMatrixOuter1"/><feMergeNode in="shadowMatrixOuter2"/></feMerge></filter><filter x="-21.1%" y="-17.3%" width="145.9%" height="152.2%" filterUnits="objectBoundingBox" id="e"><feOffset dy="4" in="SourceAlpha" result="shadowOffsetOuter1"/><feGaussianBlur stdDeviation="13" in="shadowOffsetOuter1" result="shadowBlurOuter1"/><feColorMatrix values="0 0 0 0 0 0 0 0 0 0 0 0 0 0 0 0 0 0 0.09 0" in="shadowBlurOuter1" result="shadowMatrixOuter1"/><feOffset dx="7" dy="48" in="SourceAlpha" result="shadowOffsetOuter2"/><feGaussianBlur stdDeviation="21" in="shadowOffsetOuter2" result="shadowBlurOuter2"/><feColorMatrix values="0 0 0 0 0 0 0 0 0 0 0 0 0 0 0 0 0 0 0.13 0" in="shadowBlurOuter2" result="shadowMatrixOuter2"/><feMerge><feMergeNode in="shadowMatrixOuter1"/><feMergeNode in="shadowMatrixOuter2"/></feMerge></filter><rect id="d" x="98" y="55" width="379" height="387" rx="8"/><rect id="f" x="0" y="0" width="379" height="387" rx="8"/><linearGradient x1="50%" y1="0%" x2="50%" y2="100%" id="g"><stop stop-color="#FFF" stop-opacity="0" offset="0%"/><stop stop-color="#FFF" offset="100%"/></linearGradient><path id="a" d="M0 0h555v388H0z"/></defs><g fill="none" fill-rule="evenodd"><mask id="b" fill="#fff"><use xlink:href="#a"/></mask><use fill-opacity=".01" fill="#FFF" xlink:href="#a"/><text mask="url(#b)" font-family="SFMono-Medium, SF Mono" font-size="14" font-weight="400" fill="#00000A">
                <tspan x="145" y="352">Next Retry in 3 days</tspan>
            </text><g mask="url(#b)"><use fill="#000" filter="url(#c)" xlink:href="#d"/><use fill="#FFF" xlink:href="#d"/></g><g mask="url(#b)"><g transform="translate(68 25)"><use fill="#000" filter="url(#e)" xlink:href="#f"/><use fill="#FFF" xlink:href="#f"/><path d="M314.252 77.118V69H313v8.118h1.252Zm2.934 0v-3.039c0-.27.041-.516.122-.736.081-.22.19-.408.325-.562.135-.155.294-.275.475-.36.182-.085.377-.128.586-.128.41 0 .725.113.945.337.22.224.33.533.33.927v3.56h1.183V73.21c0-.325-.052-.613-.156-.864a1.775 1.775 0 0 0-.423-.627 1.825 1.825 0 0 0-.638-.382 2.314 2.314 0 0 0-.789-.134 2.19 2.19 0 0 0-1.142.308 2.301 2.301 0 0 0-.818.817v-.962h-1.182v5.752h1.182Zm8.327 0 2.32-5.752h-1.277l-1.611 4.279-1.612-4.28h-1.276l2.32 5.753h1.136Zm5.752.162c.379 0 .752-.064 1.119-.191a2.874 2.874 0 0 0 1.687-1.525c.178-.38.267-.82.267-1.322 0-.495-.09-.932-.267-1.31a2.874 2.874 0 0 0-.702-.952 3.017 3.017 0 0 0-.985-.58 3.299 3.299 0 0 0-1.12-.197c-.378 0-.751.066-1.118.198a3.017 3.017 0 0 0-.986.58c-.29.254-.524.571-.702.95-.177.38-.266.816-.266 1.31 0 .503.089.944.266 1.323a2.874 2.874 0 0 0 1.688 1.525c.367.127.74.191 1.119.191Zm0-1.09c-.255 0-.495-.046-.72-.14a1.803 1.803 0 0 1-.59-.394 1.893 1.893 0 0 1-.407-.614 2.05 2.05 0 0 1-.15-.8c0-.294.05-.56.15-.8.1-.24.236-.445.406-.615.17-.17.368-.302.592-.394.224-.093.464-.14.719-.14.255 0 .494.047.719.14.224.092.421.224.591.394.17.17.306.375.406.615.1.24.15.506.15.8 0 .293-.05.56-.15.8-.1.24-.236.444-.406.614-.17.17-.367.302-.591.395-.225.093-.464.139-.72.139Zm5.497-5.74v-1.334h-1.346v1.334h1.346Zm-.082 6.668v-5.752h-1.183v5.752h1.183Zm4.175.162c.603 0 1.127-.141 1.571-.423.445-.282.803-.694 1.073-1.235l-.916-.592c-.193.364-.42.648-.678.853-.26.204-.605.307-1.038.307-.255 0-.491-.045-.708-.133a1.676 1.676 0 0 1-.568-.383 1.7 1.7 0 0 1-.377-.615 2.37 2.37 0 0 1-.133-.817c0-.302.046-.574.139-.818a1.676 1.676 0 0 1 .95-.997c.217-.09.45-.134.697-.134.324 0 .628.078.91.232.282.155.528.445.736.87l.94-.626a2.395 2.395 0 0 0-.974-1.148c-.449-.278-.99-.418-1.624-.418a2.99 2.99 0 0 0-2.093.841c-.275.267-.491.588-.65.963a3.14 3.14 0 0 0-.237 1.235c0 .448.077.86.232 1.235a2.81 2.81 0 0 0 1.577 1.583c.363.147.754.22 1.171.22Zm6.32 0c.657 0 1.199-.141 1.624-.423.425-.282.773-.702 1.044-1.259l-.917-.545a4.04 4.04 0 0 1-.278.476c-.1.147-.218.272-.354.377a1.65 1.65 0 0 1-.47.25 1.868 1.868 0 0 1-.614.092c-.255 0-.487-.043-.696-.128a1.592 1.592 0 0 1-.545-.365 1.762 1.762 0 0 1-.365-.557 1.957 1.957 0 0 1-.145-.701h4.557v-.418c0-.417-.067-.802-.202-1.154a2.71 2.71 0 0 0-.569-.91 2.573 2.573 0 0 0-.875-.597 2.905 2.905 0 0 0-1.137-.215c-.41 0-.794.074-1.154.22a2.823 2.823 0 0 0-1.57 1.584 3.209 3.209 0 0 0-.233 1.235c0 .448.077.86.232 1.235.155.375.363.696.626.962.263.267.57.474.922.62.352.148.725.221 1.12.221Zm1.717-3.688h-3.433c.054-.208.135-.4.244-.574.108-.174.237-.324.388-.452.15-.128.32-.228.51-.302.19-.073.393-.11.61-.11.2 0 .395.031.585.093.19.062.361.153.516.273a1.525 1.525 0 0 1 .58 1.072Z" fill="#00000A" fill-rule="nonzero"/><g fill="#00000A" fill-rule="nonzero"><path d="M42.736 83.86v-.343H40.53l1.307-4.03h4.93l1.693 4.03H46.7v.343h7.887v-.343h-.985L46.809 68h-1.115L38.88 83.517H38v.343h4.736Zm3.858-4.758h-4.65l2.014-6.215 2.636 6.215Zm15.624 5.186c2.594 0 4.93-1.328 5.958-3.172l-.021-.021c-.407.193-1.157.279-1.757.279-4.566 0-9.023-4.48-9.023-9.945 0-1.714.728-2.443 1.671-2.443 1.522 0 3.237 1.436 6.494 7.801h.022l1.886-7.48C65.883 68.493 64.04 68 61.832 68c-4.693 0-7.78 3.022-7.78 7.63 0 5.058 3.237 8.658 8.166 8.658Zm16.632-.321 4.522-13.588 1.693 13.138h-2.143v.343h8.508v-.343h-1.629l-1.757-13.931 1.929-1.157h-7.244l-2.38 9.837-3.75-9.837h-6.558l1.929 1.157v.021l-1.886 13.91h-1.372v.343h5.208v-.343h-2.207l.578-13.16 5.38 13.61h1.179Zm26.661-.107v-5.358h-.021c-2.015 3.729-4.18 4.972-6.709 5.015V75.93c1.394.064 2.83 1.179 3.644 2.85h.021V72.8h-.021c-.793 1.63-2.293 2.766-3.644 2.83v-6.858c2.53.021 4.694 1.328 6.709 5.015h.021v-5.358H92.16l1.907 1.157v13.93h-1.714v.344h13.16Z"/><path d="M58.394 98.978c1.414 0 2.55-.515 3.364-1.243l-.407-.75c-.643.364-1.179.514-1.864.514-1.48 0-2.872-1.2-2.872-3.88 0-1.907.578-2.935 1.671-2.935.45 0 .793.171 1.18.492l1.628 2.187h.279v-3.451a7.317 7.317 0 0 0-2.508-.472c-3 0-4.865 2.187-4.865 4.994 0 2.743 1.715 4.544 4.394 4.544Zm8.744 0c2.722 0 4.672-1.972 4.672-4.887 0-2.915-1.907-4.65-4.415-4.65-2.786 0-4.672 2.164-4.672 4.993 0 2.743 1.8 4.544 4.415 4.544Zm.429-1.265c-1.286 0-2.23-1.714-2.23-4.158 0-1.757.622-2.786 1.63-2.786 1.285 0 2.228 1.715 2.228 4.158 0 1.758-.621 2.786-1.628 2.786Zm10.437 1.05v-1.371h-1.286l-.107-.107V91.99c.236-.022.471-.043.707-.043a9.75 9.75 0 0 1 2.68.364v-2.764a1.521 1.521 0 0 0-.622-.108c-.815 0-1.78.622-2.83 1.586l-.278-1.543-.279-.15-3.214 1.65v.28l1.371.835v5.187l-.107.107h-.964v1.371h4.929Zm7.694 4.93v-1.372h-1.286l-.107-.107v-3.558c.471.215 1.007.322 1.607.322 2.7 0 4.63-2.208 4.63-5.037 0-2.657-1.393-4.5-3.28-4.5-1.092 0-1.993.578-3.021 1.371l-.279-1.329-.279-.15-3.214 1.65v.28l1.371.835v10.116l-.107.107h-.964v1.372h4.93Zm.3-6.001c-.729 0-1.329-.386-1.693-1.029v-5.186c.557-.129.986-.193 1.522-.193 1.264 0 2.1 1.093 2.1 3.236 0 1.95-.643 3.172-1.929 3.172Z" opacity=".4"/></g><path d="M79.256 327v-7.396h.102L83.351 327h1.312v-9.864h-1.265v7.376h-.102l-3.979-7.376h-1.326V327h1.265Zm10.896.144c1.607 0 2.837-.862 3.035-2.113h-1.312c-.185.609-.848.985-1.73.985-1.175 0-1.934-.807-1.934-2.065v-.335h4.997v-.806c0-2.12-1.183-3.405-3.13-3.405-1.935 0-3.214 1.292-3.214 3.254v1.135c0 2.12 1.197 3.35 3.288 3.35Zm1.71-4.492H88.21c0-1.333.697-2.126 1.852-2.126 1.128 0 1.798.8 1.798 2.126ZM96.803 327l1.763-2.769h.096L100.42 327h1.565l-2.515-3.773 2.495-3.678h-1.531l-1.716 2.741h-.096l-1.73-2.741h-1.599l2.516 3.732L95.307 327h1.497Zm11.874.027c.287 0 1.367-.027 1.517-.054v-1.121c-.164.02-1.073.034-1.422.034-.95 0-1.462-.404-1.462-1.142v-4.026h2.925v-1.128h-2.946v-2.078h-1.353v2.078h-1.97v1.128h1.97v4.026c0 1.6.834 2.283 2.74 2.283Zm14.17-.027v-3.849h2.017L126.67 327h1.6l-1.997-4.115c1.108-.383 1.812-1.45 1.812-2.735 0-1.866-1.244-3.014-3.26-3.014h-3.391V327h1.415Zm1.778-4.997h-1.777v-3.657h1.825c1.25 0 1.975.67 1.975 1.832s-.731 1.825-2.023 1.825Zm8.798 5.14c1.606 0 2.837-.86 3.035-2.112h-1.313c-.184.609-.847.985-1.729.985-1.176 0-1.935-.807-1.935-2.065v-.335h4.997v-.806c0-2.12-1.182-3.405-3.13-3.405-1.935 0-3.213 1.292-3.213 3.254v1.135c0 2.12 1.196 3.35 3.288 3.35Zm1.709-4.49h-3.65c0-1.334.697-2.127 1.852-2.127 1.128 0 1.798.8 1.798 2.126Zm8.162 4.374c.287 0 1.367-.027 1.518-.054v-1.121c-.165.02-1.074.034-1.422.034-.95 0-1.463-.404-1.463-1.142v-4.026h2.926v-1.128h-2.947v-2.078h-1.353v2.078h-1.969v1.128h1.969v4.026c0 1.6.834 2.283 2.74 2.283Zm9.283-.027v-1.053h-2.263v-2.27c0-1.824.937-2.87 2.619-2.87.41 0 .895.089 1.23.212v-1.504c-.246-.103-.65-.158-1.073-.158-1.429 0-2.297.69-2.591 2.092h-.191v-1.9h-2.947v1.053h1.62v5.345h-1.476V327h5.072Zm4.512 2.666c1.517 0 2.215-.588 2.864-2.44l2.734-7.677h-1.456l-1.948 6.097h-.096l-1.961-6.097h-1.504l2.714 7.506-.117.369c-.273.786-.663 1.087-1.38 1.087-.11 0-.336-.007-.41-.02v1.155c.088.006.348.02.56.02Zm19.557-11.86c.616 0 1.06-.424 1.06-1.012 0-.595-.444-1.019-1.06-1.019-.608 0-1.06.424-1.06 1.019 0 .588.452 1.012 1.06 1.012Zm3.145 9.194v-1.107h-2.406v-6.344h-3.794v1.107h2.454v5.237h-2.509V327h6.255Zm3.623 0v-4.368c0-1.203.766-2.003 1.907-2.003 1.1 0 1.614.601 1.614 1.88V327h1.374v-4.833c0-1.791-.875-2.762-2.496-2.762-1.114 0-1.955.52-2.344 1.443h-.096v-1.3h-1.326V327h1.367Zm19.086.205c2.037 0 3.48-1.196 3.48-2.898 0-1.333-.787-2.243-2.106-2.413v-.11c1.066-.246 1.702-1.1 1.702-2.276 0-1.518-1.285-2.577-3.124-2.577-1.9 0-3.138 1.08-3.24 2.83h1.326c.089-1.012.793-1.634 1.866-1.634 1.074 0 1.784.622 1.784 1.586 0 .97-.738 1.647-1.804 1.647h-1.1v1.135h1.14c1.3 0 2.127.684 2.127 1.757 0 1.053-.807 1.716-2.092 1.716-1.183 0-2.01-.643-2.106-1.648h-1.333c.09 1.743 1.47 2.885 3.48 2.885Zm16.72-.082c1.074 0 1.84-.458 2.195-1.299h.13V327h1.374v-10.356h-1.408v4.087h-.13c-.3-.834-1.087-1.305-2.16-1.305-1.716 0-2.81 1.223-2.81 3.172v1.353c0 1.948 1.094 3.172 2.81 3.172Zm.452-1.217c-1.149 0-1.873-.806-1.873-2.085v-1.114c0-1.278.724-2.092 1.873-2.092 1.148 0 1.873.807 1.873 2.092v1.114c0 1.279-.725 2.085-1.873 2.085Zm7.95 1.217c1.053 0 1.853-.437 2.208-1.203h.13v1.087h1.306v-5.093c0-1.565-1.026-2.468-2.824-2.468-1.6 0-2.768.834-2.905 2.065h1.34c.178-.588.745-.93 1.538-.93.957 0 1.49.479 1.49 1.333v.656l-1.955.103c-1.736.102-2.693.882-2.693 2.208 0 1.347.943 2.242 2.365 2.242Zm.424-1.142c-.875 0-1.422-.444-1.422-1.162 0-.724.52-1.134 1.51-1.19l1.771-.088v.786c0 .95-.793 1.654-1.86 1.654Zm6.932 3.685c1.517 0 2.214-.588 2.864-2.44l2.734-7.677h-1.456l-1.948 6.097h-.096l-1.962-6.097h-1.504l2.714 7.506-.116.369c-.273.786-.663 1.087-1.38 1.087-.11 0-.336-.007-.411-.02v1.155c.089.006.349.02.56.02Zm10.793-2.53c1.819 0 2.988-.902 2.988-2.317 0-1.093-.663-1.722-2.133-2.05l-1.08-.24c-.868-.191-1.23-.485-1.23-1.018 0-.615.567-1.026 1.442-1.026.82 0 1.401.376 1.524.985h1.313c-.123-1.292-1.19-2.072-2.817-2.072-1.709 0-2.823.875-2.823 2.208 0 1.087.677 1.771 2.037 2.079l1.114.252c.903.206 1.238.486 1.238 1.033 0 .65-.602 1.066-1.538 1.066-.903 0-1.518-.362-1.668-.998h-1.381c.123 1.313 1.258 2.099 3.014 2.099Z" fill="#00000A" fill-rule="nonzero"/><rect fill="#DDEDFF" fill-rule="nonzero" x="281" y="319" width="69" height="8" rx="4"/><g transform="translate(36 84)"><rect fill="#DDEDFF" y="76" width="139" height="5" rx="2.5"/><rect fill="#E4F2FF" x="285" width="29" height="5" rx="2.5"/><rect fill="#DDEDFF" y="93" width="109" height="5" rx="2.5"/><rect fill="#DDEDFF" y="33" width="109" height="5" rx="2.5"/><rect fill="#DDEDFF" y="46" width="59" height="5" rx="2.5"/><rect fill="#DDEDFF" y="149" width="109" height="5" rx="2.5"/><rect fill="#DDEDFF" x="212" y="149" width="39" height="5" rx="2.5"/><rect fill="#DDEDFF" x="222" y="170" width="29" height="5" rx="2.5"/><rect fill="#DDEDFF" x="275" y="149" width="39" height="5" rx="2.5"/><rect fill="#DDEDFF" x="275" y="170" width="39" height="5" rx="2.5"/><path stroke="#E1F2FF" stroke-width="2" stroke-linecap="square" d="m1 124 312.5.5M212 199l101.5.5"/></g><path d="M39.048 323.286c0-5.891 4.775-10.667 10.666-10.667s10.667 4.776 10.667 10.667c0 5.89-4.776 10.666-10.667 10.666-5.89 0-10.666-4.775-10.666-10.666Zm23.542-10.713a21.997 21.997 0 0 0-2.148-2.148l-2.164 2.194a13.506 13.506 0 0 0-8.564-3.048c-7.574 0-13.714 6.14-13.714 13.715C36 330.86 42.14 337 49.714 337a13.686 13.686 0 0 0 13.715-13.714c0-3.23-1.128-6.202-3.002-8.549l2.163-2.164Zm-14.4 12.237h3.048v-9.143H48.19M54.286 305h-9.143v3.048h9.143V305Z" fill="#FF6C63" fill-rule="nonzero"/><path d="M36 0h84.148v18.5c0 7.456-6.044 13.5-13.5 13.5H49.5C42.044 32 36 25.956 36 18.5V0Z" fill="#FF6C63"/><path d="M49.108 21.333c2.937 0 4.364-2.024 4.364-5.79 0-3.767-1.427-5.791-4.364-5.791h-3.451v11.581h3.451Zm-.116-1.526h-1.493v-8.529h1.493c1.692 0 2.522 1.195 2.522 3.302v1.925c0 2.107-.83 3.302-2.522 3.302Zm9.458 1.725c1.41 0 2.107-.763 2.472-1.659h.083v1.46h1.809v-8.561h-1.809v5.807c0 .996-.93 1.477-1.858 1.477-1.162 0-1.776-.68-1.776-2.041v-5.243h-1.808v5.508c0 2.074 1.161 3.252 2.887 3.252Zm8.96-.199v-5.807c0-.996.929-1.477 1.858-1.477 1.162 0 1.776.68 1.776 2.041v5.243h1.808v-5.508c0-2.074-1.161-3.253-2.887-3.253-1.41 0-2.107.764-2.472 1.66h-.083v-1.46H65.6v8.561h1.809Zm9.955 0v-5.807c0-.996.93-1.477 1.859-1.477 1.161 0 1.775.68 1.775 2.041v5.243h1.809v-5.508c0-2.074-1.162-3.253-2.887-3.253-1.41 0-2.108.764-2.473 1.66h-.083v-1.46h-1.808v8.561h1.808Zm12.262-10.121c.896 0 1.228-.432 1.228-.98v-.348c0-.547-.332-.979-1.244-.979-.896 0-1.228.432-1.228.98v.348c0 .547.332.979 1.244.979Zm3.634 10.121v-1.46h-2.738v-7.101h-4.729v1.46h2.92v5.641h-2.92v1.46h7.467Zm4.015 0v-5.807c0-.996.93-1.477 1.859-1.477 1.161 0 1.775.68 1.775 2.041v5.243h1.809v-5.508c0-2.074-1.162-3.253-2.887-3.253-1.41 0-2.108.764-2.473 1.66h-.083v-1.46h-1.808v8.561h1.808Zm11.715 3.518c3.02 0 4.496-.83 4.496-2.588 0-1.41-.945-2.373-3.252-2.373h-1.924c-.747 0-1.328-.067-1.328-.598 0-.464.498-.73.896-.83.332.067.68.1 1.062.1 2.107 0 3.484-1.161 3.484-2.986 0-1.029-.414-1.825-1.161-2.34v-.398h1.991V11.41h-1.56c-.763 0-1.144.498-1.144 1.161v.283a4.42 4.42 0 0 0-1.61-.283c-2.107 0-3.484 1.179-3.484 3.004 0 1.228.614 2.14 1.642 2.621v.083c-.896.216-1.543.598-1.543 1.444 0 .647.365 1.029.946 1.244v.166c-.946.25-1.493.73-1.493 1.66 0 1.277 1.028 2.057 3.982 2.057Zm-.05-7.533c-1.161 0-1.709-.614-1.709-1.527v-.448c0-.912.548-1.526 1.709-1.526 1.162 0 1.71.614 1.71 1.526v.448c0 .913-.548 1.527-1.71 1.527Zm.747 6.255h-1.344c-1.261 0-1.76-.53-1.76-1.178 0-.448.217-.763.631-.962h2.97c1.212 0 1.61.365 1.61.946 0 .78-.747 1.194-2.107 1.194Z" fill="#FFF" fill-rule="nonzero"/></g></g><path fill="url(#g)" mask="url(#b)" d="M0 321h555v67H0z"/></g></svg>