<svg width="555" height="380" xmlns="http://www.w3.org/2000/svg" xmlns:xlink="http://www.w3.org/1999/xlink"><defs><filter x="-14.8%" y="-21.2%" width="129.5%" height="150%" filterUnits="objectBoundingBox" id="i"><feOffset dy="4" in="SourceAlpha" result="shadowOffsetOuter1"/><feGaussianBlur stdDeviation="8" in="shadowOffsetOuter1" result="shadowBlurOuter1"/><feComposite in="shadowBlurOuter1" in2="SourceAlpha" operator="out" result="shadowBlurOuter1"/><feColorMatrix values="0 0 0 0 0 0 0 0 0 0 0 0 0 0 0 0 0 0 0.09 0" in="shadowBlurOuter1"/></filter><filter x="-14.8%" y="-21.2%" width="129.5%" height="150%" filterUnits="objectBoundingBox" id="e"><feOffset dy="4" in="SourceAlpha" result="shadowOffsetOuter1"/><feGaussianBlur stdDeviation="8" in="shadowOffsetOuter1" result="shadowBlurOuter1"/><feComposite in="shadowBlurOuter1" in2="SourceAlpha" operator="out" result="shadowBlurOuter1"/><feColorMatrix values="0 0 0 0 0 0 0 0 0 0 0 0 0 0 0 0 0 0 0.09 0" in="shadowBlurOuter1"/></filter><filter x="-27.8%" y="-19%" width="155.6%" height="147.6%" filterUnits="objectBoundingBox" id="o"><feOffset dy="4" in="SourceAlpha" result="shadowOffsetOuter1"/><feGaussianBlur stdDeviation="8" in="shadowOffsetOuter1" result="shadowBlurOuter1"/><feComposite in="shadowBlurOuter1" in2="SourceAlpha" operator="out" result="shadowBlurOuter1"/><feColorMatrix values="0 0 0 0 0 0 0 0 0 0 0 0 0 0 0 0 0 0 0.09 0" in="shadowBlurOuter1" result="shadowMatrixOuter1"/><feOffset dy="8" in="SourceAlpha" result="shadowOffsetOuter2"/><feGaussianBlur stdDeviation="12" in="shadowOffsetOuter2" result="shadowBlurOuter2"/><feComposite in="shadowBlurOuter2" in2="SourceAlpha" operator="out" result="shadowBlurOuter2"/><feColorMatrix values="0 0 0 0 0 0 0 0 0 0 0 0 0 0 0 0 0 0 0.24 0" in="shadowBlurOuter2" result="shadowMatrixOuter2"/><feMerge><feMergeNode in="shadowMatrixOuter1"/><feMergeNode in="shadowMatrixOuter2"/></feMerge></filter><filter x="-14.8%" y="-21.2%" width="129.5%" height="150%" filterUnits="objectBoundingBox" id="k"><feOffset dy="4" in="SourceAlpha" result="shadowOffsetOuter1"/><feGaussianBlur stdDeviation="8" in="shadowOffsetOuter1" result="shadowBlurOuter1"/><feComposite in="shadowBlurOuter1" in2="SourceAlpha" operator="out" result="shadowBlurOuter1"/><feColorMatrix values="0 0 0 0 0 0 0 0 0 0 0 0 0 0 0 0 0 0 0.09 0" in="shadowBlurOuter1"/></filter><filter x="-3.8%" y="-12.8%" width="107.7%" height="136%" filterUnits="objectBoundingBox" id="m"><feMorphology radius="1" operator="dilate" in="SourceAlpha" result="shadowSpreadOuter1"/><feOffset dy="4" in="shadowSpreadOuter1" result="shadowOffsetOuter1"/><feMorphology radius="1" in="SourceAlpha" result="shadowInner"/><feOffset dy="4" in="shadowInner" result="shadowInner"/><feComposite in="shadowOffsetOuter1" in2="shadowInner" operator="out" result="shadowOffsetOuter1"/><feGaussianBlur stdDeviation="3.5" in="shadowOffsetOuter1" result="shadowBlurOuter1"/><feColorMatrix values="0 0 0 0 0 0 0 0 0 0.480295599 0 0 0 0 0 0 0 0 1 0" in="shadowBlurOuter1"/></filter><path d="M10 0h130a4 4 0 0 1 4 4v160a4 4 0 0 1-4 4H10a4 4 0 0 1-4-4V35.464l-6-4.981 6-4.664V4a4 4 0 0 1 4-4Z" id="p"/><path id="j" d="M0 0h176v104H0z"/><path id="f" d="M48 29h176v104H48z"/><path id="l" d="M0 0h176v104H0z"/><path d="M42 77c26-14 45.667-21 59-21 13.333 0 34-7.333 62-22 21.333-12 40.667-7.333 58 14s37.333 14 60-22c10-14.667 29.667-17 59-7s50 3.667 62-19" id="n"/><rect id="c" x="0" y="0" width="555" height="380" rx="4"/><rect id="b" x="448" y="29" width="176" height="104" rx="8"/><rect id="a" x="248" y="29" width="176" height="104" rx="8"/><linearGradient x1="50%" y1="0%" x2="50%" y2="100%" id="q"><stop stop-color="#FFF" stop-opacity="0" offset="0%"/><stop stop-color="#FFF" offset="100%"/></linearGradient><linearGradient x1="50%" y1="0%" x2="50%" y2="100%" id="r"><stop stop-color="#FFF" stop-opacity="0" offset="0%"/><stop stop-color="#FFF" offset="100%"/></linearGradient><mask id="h" maskContentUnits="userSpaceOnUse" maskUnits="objectBoundingBox" x="0" y="0" width="176" height="104" fill="#fff"><use xlink:href="#b"/></mask><mask id="g" maskContentUnits="userSpaceOnUse" maskUnits="objectBoundingBox" x="0" y="0" width="176" height="104" fill="#fff"><use xlink:href="#a"/></mask></defs><g fill="none" fill-rule="evenodd"><mask id="d" fill="#fff"><use xlink:href="#c"/></mask><use fill-opacity=".01" fill="#FFF" xlink:href="#c"/><g mask="url(#d)"><use fill="#000" filter="url(#e)" xlink:href="#f"/><path stroke="#EFEFF1" stroke-linejoin="square" fill="#FFF" d="M48.5 29.5h175v103h-175z"/></g><g mask="url(#d)"><g transform="translate(64 49)"><rect fill="#E1F2FF" y="57" width="69" height="5" rx="2.5"/><path d="M2.03 10V2.006h.112L4.2 7.032l2.058-5.026h.112V10h1.078V.228H5.992L4.27 4.54h-.084L2.464.228H.952V10H2.03Zm8.806 0V5.828h1.554L14.77 10h1.316l-2.492-4.228c1.554-.154 2.408-1.162 2.408-2.73 0-1.764-.98-2.814-2.786-2.814H9.66V10h1.176Zm2.352-5.166h-2.352V1.25h2.352c.98 0 1.568.518 1.568 1.428v.728c0 .91-.588 1.428-1.568 1.428ZM19.236 10V5.828h1.554L23.17 10h1.316l-2.492-4.228c1.554-.154 2.408-1.162 2.408-2.73 0-1.764-.98-2.814-2.786-2.814H18.06V10h1.176Zm2.352-5.166h-2.352V1.25h2.352c.98 0 1.568.518 1.568 1.428v.728c0 .91-.588 1.428-1.568 1.428Z" fill="#00000B" fill-rule="nonzero"/><path d="M24.68 43.96a9.772 9.772 0 0 1-.76-1.78c-.227-.693-.42-1.42-.58-2.18-.16-.76-.287-1.533-.38-2.32-.093-.787-.14-1.52-.14-2.2 0-.68.047-1.413.14-2.2.093-.787.22-1.56.38-2.32.16-.76.353-1.483.58-2.17.227-.687.48-1.283.76-1.79h-2.26c-.64 1.147-1.16 2.427-1.56 3.84-.4 1.413-.6 2.96-.6 4.64 0 1.68.2 3.227.6 4.64.4 1.413.92 2.693 1.56 3.84h2.26Zm9.2-.96v-1.78c.68-.08 1.283-.25 1.81-.51.527-.26.977-.58 1.35-.96a3.903 3.903 0 0 0 1.14-2.77c0-1.147-.357-2.057-1.07-2.73-.713-.673-1.79-1.177-3.23-1.51V29.2c.933.387 1.593 1.16 1.98 2.32l2.08-1.2c-.373-1-.903-1.787-1.59-2.36s-1.51-.947-2.47-1.12V25H31.8v1.76a6.23 6.23 0 0 0-1.7.41c-.507.207-.94.473-1.3.8-.36.327-.637.71-.83 1.15-.193.44-.29.92-.29 1.44 0 .573.103 1.087.31 1.54.207.453.49.85.85 1.19.36.34.793.627 1.3.86a8.22 8.22 0 0 0 1.66.55v4.12c-.693-.2-1.23-.573-1.61-1.12-.38-.547-.643-1.24-.79-2.08l-2.32 1.18c.12.56.303 1.087.55 1.58.247.493.563.933.95 1.32s.85.71 1.39.97c.54.26 1.15.437 1.83.53V43h2.08ZM31.8 32.2c-.56-.213-.967-.453-1.22-.72a1.37 1.37 0 0 1-.38-.98c0-.427.147-.76.44-1 .293-.24.68-.4 1.16-.48v3.18Zm2.08 6.66v-3.62c.547.2.96.447 1.24.74s.42.66.42 1.1c0 .44-.15.817-.45 1.13-.3.313-.703.53-1.21.65Zm11.38 2.42c.747 0 1.433-.103 2.06-.31a4.654 4.654 0 0 0 1.61-.89 4.094 4.094 0 0 0 1.05-1.41c.253-.553.38-1.17.38-1.85 0-.48-.073-.91-.22-1.29a3.389 3.389 0 0 0-.59-1 3.735 3.735 0 0 0-.87-.74 4.924 4.924 0 0 0-1.04-.49 3.526 3.526 0 0 0 1.47-1.19c.393-.54.59-1.19.59-1.95 0-.493-.09-.95-.27-1.37a2.853 2.853 0 0 0-.83-1.09c-.373-.307-.843-.547-1.41-.72-.567-.173-1.23-.26-1.99-.26-.72 0-1.363.107-1.93.32-.567.213-1.047.5-1.44.86a3.673 3.673 0 0 0-1.21 2.72c0 .2.02.397.06.59.04.193.087.363.14.51l2.44-.54a1.854 1.854 0 0 1-.08-.29 1.888 1.888 0 0 1-.04-.39c0-.507.193-.903.58-1.19.387-.287.873-.43 1.46-.43.6 0 1.077.15 1.43.45.353.3.53.697.53 1.19 0 .64-.257 1.137-.77 1.49s-1.257.53-2.23.53v1.96c.507 0 .977.04 1.41.12.433.08.81.213 1.13.4.32.187.573.427.76.72.187.293.28.653.28 1.08 0 .733-.23 1.287-.69 1.66-.46.373-1.05.56-1.77.56-.707 0-1.28-.19-1.72-.57-.44-.38-.66-.89-.66-1.53 0-.147.007-.263.02-.35a1.05 1.05 0 0 1 .06-.23l-2.5-.6c-.067.173-.12.377-.16.61-.04.233-.06.443-.06.63 0 .56.107 1.1.32 1.62.213.52.53.977.95 1.37.42.393.943.707 1.57.94.627.233 1.353.35 2.18.35Zm9.02-.28v-2.68H51.6V41h2.68Zm6.12.28c1.147 0 2.143-.293 2.99-.88.847-.587 1.483-1.427 1.91-2.52.24-.613.44-1.303.6-2.07.16-.767.24-1.643.24-2.63 0-2.067-.463-3.66-1.39-4.78-.927-1.12-2.283-1.68-4.07-1.68-.76 0-1.46.12-2.1.36-.64.24-1.19.577-1.65 1.01-.46.433-.817.94-1.07 1.52a4.67 4.67 0 0 0-.38 1.89c0 .68.12 1.307.36 1.88s.577 1.063 1.01 1.47c.433.407.953.727 1.56.96.607.233 1.277.35 2.01.35.8 0 1.463-.147 1.99-.44.527-.293.937-.633 1.23-1.02-.107 1.44-.44 2.557-1 3.35-.56.793-1.28 1.19-2.16 1.19-.52 0-.977-.113-1.37-.34-.393-.227-.59-.573-.59-1.04 0-.12.01-.223.03-.31.02-.087.057-.197.11-.33l-2.48-.54a3.083 3.083 0 0 0-.18 1.06c0 .493.093.957.28 1.39.187.433.467.81.84 1.13.373.32.833.57 1.38.75.547.18 1.18.27 1.9.27Zm.34-7.28a3.06 3.06 0 0 1-1.01-.17 2.625 2.625 0 0 1-.87-.5 2.359 2.359 0 0 1-.6-.81c-.147-.32-.22-.68-.22-1.08s.073-.76.22-1.08c.147-.32.347-.59.6-.81.253-.22.543-.387.87-.5a3.06 3.06 0 0 1 2.01 0c.32.113.6.28.84.5.24.22.433.49.58.81.147.32.22.68.22 1.08s-.073.76-.22 1.08c-.147.32-.34.59-.58.81-.24.22-.52.387-.84.5-.32.113-.653.17-1 .17Zm12.82 7V27h-2.48c-.307.587-.697 1.027-1.17 1.32-.473.293-1.117.44-1.93.44v2.44c.64 0 1.193-.06 1.66-.18.467-.12.893-.373 1.28-.76V41h2.64Zm5.4 0v-8.56a43.3 43.3 0 0 0 .38 1.2l.3.94L82.38 41h2.52l2.74-6.42.3-.94a43.3 43.3 0 0 0 .38-1.2V41h2.56V27H88.1l-4.46 11.12L79.18 27H76.4v14h2.56Zm17.16 2.96c.64-1.147 1.16-2.427 1.56-3.84.4-1.413.6-2.96.6-4.64 0-1.68-.2-3.227-.6-4.64-.4-1.413-.92-2.693-1.56-3.84h-2.26c.28.507.533 1.103.76 1.79.227.687.42 1.41.58 2.17.16.76.287 1.533.38 2.32.093.787.14 1.52.14 2.2 0 .68-.047 1.413-.14 2.2-.093.787-.22 1.56-.38 2.32-.16.76-.353 1.487-.58 2.18a9.772 9.772 0 0 1-.76 1.78h2.26Z" fill="#007400" fill-rule="nonzero"/><path fill="#067114" fill-rule="nonzero" d="M7.8 41.646v-8.268l2.99 2.99 1.586-1.586-5.642-5.668-5.642 5.668 1.586 1.586 2.99-2.99v8.268z"/></g></g><path stroke="#EBF2FE" stroke-width="2" fill="#FFF" mask="url(#d)" d="M49 170h374v214H49z"/><text opacity=".5" mask="url(#d)" font-family="IBMPlexMono, IBM Plex Mono" font-size="10" fill="#2D3650">
                <tspan x="64" y="301">15</tspan>
            </text><text opacity=".5" mask="url(#d)" font-family="IBMPlexMono, IBM Plex Mono" font-size="10" fill="#2D3650">
                <tspan x="64" y="268">25</tspan>
            </text><text opacity=".5" mask="url(#d)" font-family="IBMPlexMono, IBM Plex Mono" font-size="10" fill="#2D3650">
                <tspan x="64" y="235">35</tspan>
            </text><text opacity=".5" mask="url(#d)" font-family="IBMPlexMono, IBM Plex Mono" font-size="10" fill="#2D3650">
                <tspan x="259" y="349">Sept</tspan>
            </text><text opacity=".5" mask="url(#d)" font-family="IBMPlexMono, IBM Plex Mono" font-size="10" fill="#2D3650">
                <tspan x="315" y="349">Oct</tspan>
            </text><text opacity=".5" mask="url(#d)" font-family="IBMPlexMono, IBM Plex Mono" font-size="10" fill="#2D3650">
                <tspan x="365" y="349">Nov</tspan>
            </text><path stroke="#AAC0D7" stroke-linecap="square" stroke-dasharray="2,6" mask="url(#d)" d="M63.405 309.5H388.62M63.405 276.5H388.62M63.405 243.5H388.62"/><path stroke="#EBF2FE" stroke-width="2" fill="#FFF" mask="url(#d)" d="M449 170h444v214H449z"/><path d="M466.436 199v-4.438H471v-1.022h-4.564v-3.29h4.984v-1.022h-6.16V199h1.176Zm13.076 0v-.952h-2.8v-3.122c0-1.12.742-2.03 2.156-2.03h1.358v-1.12h-1.008c-1.512 0-2.156.868-2.436 1.82h-.07v-1.82h-3.234v.952h2.114v5.32h-2.114V199h6.034Zm5.614.168c1.428 0 2.464-.7 2.898-1.666l-.826-.56c-.378.784-1.106 1.26-2.072 1.26-1.358 0-2.212-.924-2.212-2.198v-.336h5.348v-.532c0-2.044-1.26-3.528-3.206-3.528-1.96 0-3.318 1.484-3.318 3.794 0 2.282 1.316 3.766 3.388 3.766Zm1.932-4.34h-4.144v-.098c0-1.26.91-2.198 2.142-2.198 1.19 0 2.002.868 2.002 2.142v.154Zm6.468 4.34c1.428 0 2.464-.7 2.898-1.666l-.826-.56c-.378.784-1.106 1.26-2.072 1.26-1.358 0-2.212-.924-2.212-2.198v-.336h5.348v-.532c0-2.044-1.26-3.528-3.206-3.528-1.96 0-3.318 1.484-3.318 3.794 0 2.282 1.316 3.766 3.388 3.766Zm1.932-4.34h-4.144v-.098c0-1.26.91-2.198 2.142-2.198 1.19 0 2.002.868 2.002 2.142v.154ZM513.364 199v-.952h-3.29v-5.32h3.29v-.952h-3.29v-2.548h-1.078v1.89c0 .49-.182.658-.658.658h-1.792v.952h2.408v4.62c0 .966.504 1.652 1.596 1.652h2.814Zm5.236.168c2.03 0 3.276-1.484 3.276-3.78s-1.246-3.78-3.276-3.78-3.276 1.484-3.276 3.78 1.246 3.78 3.276 3.78Zm0-.966c-1.246 0-2.086-.742-2.086-2.296v-1.036c0-1.554.84-2.296 2.086-2.296s2.086.742 2.086 2.296v1.036c0 1.554-.84 2.296-2.086 2.296Zm15.036.798v-4.144h2.38c1.806 0 2.786-1.05 2.786-2.814s-.98-2.814-2.786-2.814h-3.556V199h1.176Zm2.352-5.166h-2.352v-3.584h2.352c.98 0 1.568.518 1.568 1.428v.728c0 .91-.588 1.428-1.568 1.428Zm7.014 5.334c1.176 0 1.862-.518 2.17-1.344h.07c.084.672.42 1.176 1.288 1.176h.77v-.98h-1.008v-3.976c0-1.526-1.078-2.436-2.772-2.436-1.47 0-2.394.7-2.758 1.456l.756.56c.378-.658.966-1.064 1.932-1.064 1.092 0 1.722.546 1.722 1.596v.714h-1.54c-2.17 0-3.108.77-3.108 2.1 0 1.358.966 2.198 2.478 2.198Zm.196-.938c-.924 0-1.498-.392-1.498-1.134v-.294c0-.7.602-1.092 1.932-1.092h1.54v1.19c0 .742-.826 1.33-1.974 1.33Zm9.45-8.05c.644 0 .882-.308.882-.714v-.224c0-.406-.238-.714-.882-.714s-.882.308-.882.714v.224c0 .406.238.714.882.714Zm2.996 8.82v-.952h-2.436v-6.272h-3.724v.952h2.604v5.32h-2.604V199h6.16Zm4.424.168c1.008 0 1.764-.462 2.226-1.344h.056V199h1.12v-10.36h-1.12v4.312h-.056c-.462-.882-1.218-1.344-2.226-1.344-1.764 0-2.828 1.414-2.828 3.78 0 2.366 1.064 3.78 2.828 3.78Zm.434-.994c-1.302 0-2.058-.868-2.058-2.17v-1.232c0-1.302.756-2.17 2.058-2.17.994 0 1.848.518 1.848 1.484v2.604c0 .966-.854 1.484-1.848 1.484Zm14.728.826v-7.994h.112l2.058 5.026 2.058-5.026h.112V199h1.078v-9.772h-1.456l-1.722 4.312h-.084l-1.722-4.312h-1.512V199h1.078Zm8.806 0v-4.172h1.554l2.38 4.172h1.316l-2.492-4.228c1.554-.154 2.408-1.162 2.408-2.73 0-1.764-.98-2.814-2.786-2.814h-3.556V199h1.176Zm2.352-5.166h-2.352v-3.584h2.352c.98 0 1.568.518 1.568 1.428v.728c0 .91-.588 1.428-1.568 1.428Zm6.048 5.166v-4.172h1.554l2.38 4.172h1.316l-2.492-4.228c1.554-.154 2.408-1.162 2.408-2.73 0-1.764-.98-2.814-2.786-2.814h-3.556V199h1.176Zm2.352-5.166h-2.352v-3.584h2.352c.98 0 1.568.518 1.568 1.428v.728c0 .91-.588 1.428-1.568 1.428Zm15.946 5.334c1.344 0 1.89-.714 2.212-1.47h.07V199h1.092v-4.83h-3.15v.938h2.058v1.008c0 1.204-.756 2.058-2.016 2.058-1.596 0-2.17-1.386-2.17-3.346v-1.512c0-1.96.714-3.234 2.282-3.234 1.176 0 1.638.714 1.988 1.582l1.008-.462c-.42-1.064-1.204-2.142-3.038-2.142-2.352 0-3.486 1.792-3.486 5.124 0 3.192 1.036 4.984 3.15 4.984Zm11.578-.168v-.952h-2.8v-3.122c0-1.12.742-2.03 2.156-2.03h1.358v-1.12h-1.008c-1.512 0-2.156.868-2.436 1.82h-.07v-1.82h-3.234v.952h2.114v5.32h-2.114V199h6.034Zm5.488.168c2.03 0 3.276-1.484 3.276-3.78s-1.246-3.78-3.276-3.78-3.276 1.484-3.276 3.78 1.246 3.78 3.276 3.78Zm0-.966c-1.246 0-2.086-.742-2.086-2.296v-1.036c0-1.554.84-2.296 2.086-2.296s2.086.742 2.086 2.296v1.036c0 1.554-.84 2.296-2.086 2.296Zm7.182.798 1.176-6.048h.112l1.148 6.048h1.456l1.106-7.224h-.966l-.826 6.244h-.126l-1.232-6.244h-1.232l-1.232 6.244h-.126l-.826-6.244h-.994l1.106 7.224h1.456Zm12.782 0v-.952h-3.29v-5.32h3.29v-.952h-3.29v-2.548h-1.078v1.89c0 .49-.182.658-.658.658h-1.792v.952h2.408v4.62c0 .966.504 1.652 1.596 1.652h2.814Zm3.528 0v-5.012c0-.952.896-1.386 1.792-1.386 1.106 0 1.708.644 1.708 1.96V199h1.12v-4.634c0-1.75-.994-2.758-2.506-2.758-1.19 0-1.75.63-2.058 1.344h-.056v-4.312h-1.12V199h1.12Zm18.83.168c1.792 0 2.534-1.078 3.01-2.142l-1.008-.462c-.35.868-.812 1.582-2.002 1.582-1.554 0-2.296-1.274-2.296-3.234v-1.596c0-1.96.742-3.234 2.296-3.234 1.19 0 1.652.714 2.002 1.582l1.008-.462c-.476-1.064-1.218-2.142-3.01-2.142-2.38 0-3.542 1.806-3.542 5.054s1.162 5.054 3.542 5.054Zm6.37-.168v-5.012c0-.952.896-1.386 1.792-1.386 1.106 0 1.708.644 1.708 1.96V199h1.12v-4.634c0-1.75-.994-2.758-2.506-2.758-1.19 0-1.75.63-2.058 1.344h-.056v-4.312h-1.12V199h1.12Zm9.31.168c1.176 0 1.862-.518 2.17-1.344h.07c.084.672.42 1.176 1.288 1.176h.77v-.98h-1.008v-3.976c0-1.526-1.078-2.436-2.772-2.436-1.47 0-2.394.7-2.758 1.456l.756.56c.378-.658.966-1.064 1.932-1.064 1.092 0 1.722.546 1.722 1.596v.714h-1.54c-2.17 0-3.108.77-3.108 2.1 0 1.358.966 2.198 2.478 2.198Zm.196-.938c-.924 0-1.498-.392-1.498-1.134v-.294c0-.7.602-1.092 1.932-1.092h1.54v1.19c0 .742-.826 1.33-1.974 1.33Zm11.914.77v-.952h-2.8v-3.122c0-1.12.742-2.03 2.156-2.03h1.358v-1.12h-1.008c-1.512 0-2.156.868-2.436 1.82h-.07v-1.82h-3.234v.952h2.114v5.32h-2.114V199h6.034Zm8.652 0v-.952h-3.29v-5.32h3.29v-.952h-3.29v-2.548h-1.078v1.89c0 .49-.182.658-.658.658h-1.792v.952h2.408v4.62c0 .966.504 1.652 1.596 1.652h2.814ZM66.184 199v-8.274h.098L69.614 199h1.666v-9.772h-1.064v8.19h-.098l-3.332-8.19H65.12V199h1.064Zm10.542.168c1.428 0 2.464-.7 2.898-1.666l-.826-.56c-.378.784-1.106 1.26-2.072 1.26-1.358 0-2.212-.924-2.212-2.198v-.336h5.348v-.532c0-2.044-1.26-3.528-3.206-3.528-1.96 0-3.318 1.484-3.318 3.794 0 2.282 1.316 3.766 3.388 3.766Zm1.932-4.34h-4.144v-.098c0-1.26.91-2.198 2.142-2.198 1.19 0 2.002.868 2.002 2.142v.154ZM83.782 199l1.176-6.048h.112L86.218 199h1.456l1.106-7.224h-.966l-.826 6.244h-.126l-1.232-6.244h-1.232l-1.232 6.244h-.126l-.826-6.244h-.994L82.326 199h1.456Zm16.254 0v-4.144h2.38c1.806 0 2.786-1.05 2.786-2.814s-.98-2.814-2.786-2.814H98.86V199h1.176Zm2.352-5.166h-2.352v-3.584h2.352c.98 0 1.568.518 1.568 1.428v.728c0 .91-.588 1.428-1.568 1.428Zm7.014 5.334c1.176 0 1.862-.518 2.17-1.344h.07c.084.672.42 1.176 1.288 1.176h.77v-.98h-1.008v-3.976c0-1.526-1.078-2.436-2.772-2.436-1.47 0-2.394.7-2.758 1.456l.756.56c.378-.658.966-1.064 1.932-1.064 1.092 0 1.722.546 1.722 1.596v.714h-1.54c-2.17 0-3.108.77-3.108 2.1 0 1.358.966 2.198 2.478 2.198Zm.196-.938c-.924 0-1.498-.392-1.498-1.134v-.294c0-.7.602-1.092 1.932-1.092h1.54v1.19c0 .742-.826 1.33-1.974 1.33Zm9.45-8.05c.644 0 .882-.308.882-.714v-.224c0-.406-.238-.714-.882-.714s-.882.308-.882.714v.224c0 .406.238.714.882.714Zm2.996 8.82v-.952h-2.436v-6.272h-3.724v.952h2.604v5.32h-2.604V199h6.16Zm4.424.168c1.008 0 1.764-.462 2.226-1.344h.056V199h1.12v-10.36h-1.12v4.312h-.056c-.462-.882-1.218-1.344-2.226-1.344-1.764 0-2.828 1.414-2.828 3.78 0 2.366 1.064 3.78 2.828 3.78Zm.434-.994c-1.302 0-2.058-.868-2.058-2.17v-1.232c0-1.302.756-2.17 2.058-2.17.994 0 1.848.518 1.848 1.484v2.604c0 .966-.854 1.484-1.848 1.484Zm16.87.994c2.17 0 3.416-1.092 3.416-2.898 0-1.274-.63-2.338-2.548-2.674l-1.05-.182c-1.386-.238-1.834-.798-1.834-1.666 0-1.106.742-1.68 2.058-1.68 1.218 0 1.918.49 2.464 1.204l.826-.714c-.658-.938-1.722-1.498-3.276-1.498-1.988 0-3.262.924-3.262 2.716 0 1.232.602 2.338 2.52 2.66l1.092.182c1.33.224 1.82.728 1.82 1.68 0 1.176-.77 1.862-2.184 1.862-1.176 0-1.974-.462-2.73-1.414l-.854.7c.728 1.008 1.792 1.722 3.542 1.722Zm8.022 0c1.19 0 1.75-.63 2.058-1.344h.056V199h1.12v-7.224h-1.12v5.012c0 .952-.896 1.386-1.792 1.386-1.106 0-1.708-.644-1.708-1.96v-4.438h-1.12v4.634c0 1.75.994 2.758 2.506 2.758Zm9.338 0c1.764 0 2.828-1.414 2.828-3.78 0-2.366-1.064-3.78-2.828-3.78-1.008 0-1.764.462-2.226 1.344h-.056v-4.312h-1.12V199h1.12v-1.176h.056c.462.882 1.218 1.344 2.226 1.344Zm-.434-.994c-.994 0-1.848-.518-1.848-1.484v-2.604c0-.966.854-1.484 1.848-1.484 1.302 0 2.058.868 2.058 2.17v1.232c0 1.302-.756 2.17-2.058 2.17Zm8.386.994c1.848 0 3.052-.826 3.052-2.254 0-1.568-1.442-1.848-2.478-2.002l-1.134-.168c-.644-.098-1.274-.294-1.274-1.05 0-.742.63-1.148 1.764-1.148 1.274 0 1.918.504 2.254.91l.728-.686c-.686-.728-1.638-1.162-2.94-1.162-1.68 0-2.912.714-2.912 2.156 0 1.568 1.456 1.848 2.478 2.002l1.134.168c.658.098 1.274.294 1.274 1.05 0 .854-.798 1.246-1.918 1.246-1.148 0-1.932-.406-2.618-1.134l-.756.658c.756.854 1.834 1.414 3.346 1.414Zm8.568 0c1.442 0 2.352-.714 2.772-1.68l-.798-.546c-.364.784-.994 1.26-1.96 1.26-1.358 0-2.086-.924-2.086-2.198v-1.232c0-1.274.742-2.198 2.058-2.198.896 0 1.512.434 1.778 1.176l.896-.476c-.406-.98-1.274-1.666-2.674-1.666-2.044 0-3.262 1.484-3.262 3.78 0 2.282 1.204 3.78 3.276 3.78Zm11.06-.168v-.952h-2.8v-3.122c0-1.12.742-2.03 2.156-2.03h1.358v-1.12h-1.008c-1.512 0-2.156.868-2.436 1.82h-.07v-1.82h-3.234v.952h2.114v5.32h-2.114V199h6.034Zm5.936-8.82c.644 0 .882-.308.882-.714v-.224c0-.406-.238-.714-.882-.714s-.882.308-.882.714v.224c0 .406.238.714.882.714Zm2.996 8.82v-.952h-2.436v-6.272h-3.724v.952h2.604v5.32h-2.604V199h6.16Zm3.206 2.8v-3.976h.056c.462.882 1.218 1.344 2.226 1.344 1.764 0 2.828-1.414 2.828-3.78 0-2.366-1.064-3.78-2.828-3.78-1.008 0-1.764.462-2.226 1.344h-.056v-1.176h-1.12V201.8h1.12Zm1.848-3.626c-.994 0-1.848-.518-1.848-1.484v-2.604c0-.966.854-1.484 1.848-1.484 1.302 0 2.058.868 2.058 2.17v1.232c0 1.302-.756 2.17-2.058 2.17Zm11.466.826v-.952h-3.29v-5.32h3.29v-.952h-3.29v-2.548h-1.078v1.89c0 .49-.182.658-.658.658h-1.792v.952h2.408v4.62c0 .966.504 1.652 1.596 1.652h2.814Zm5.684-8.82c.644 0 .882-.308.882-.714v-.224c0-.406-.238-.714-.882-.714s-.882.308-.882.714v.224c0 .406.238.714.882.714Zm2.996 8.82v-.952h-2.436v-6.272h-3.724v.952h2.604v5.32h-2.604V199h6.16Zm4.956.168c2.03 0 3.276-1.484 3.276-3.78s-1.246-3.78-3.276-3.78-3.276 1.484-3.276 3.78 1.246 3.78 3.276 3.78Zm0-.966c-1.246 0-2.086-.742-2.086-2.296v-1.036c0-1.554.84-2.296 2.086-2.296s2.086.742 2.086 2.296v1.036c0 1.554-.84 2.296-2.086 2.296Zm6.692.798v-5.012c0-.952.896-1.386 1.792-1.386 1.106 0 1.708.644 1.708 1.96V199h1.12v-4.634c0-1.75-.994-2.758-2.506-2.758-1.19 0-1.75.63-2.058 1.344h-.056v-1.176h-1.12V199h1.12Z" fill="#00000B" fill-rule="nonzero" mask="url(#d)"/><g stroke-dasharray="3,3" mask="url(#d)" stroke="#B6C8DE" stroke-width="2"><use mask="url(#g)" xlink:href="#a"/></g><g stroke-dasharray="3,3" mask="url(#d)" fill="#FFF" fill-opacity=".01" stroke="#B6C8DE" stroke-width="2"><use mask="url(#h)" xlink:href="#b"/></g><g mask="url(#d)"><g transform="translate(278 6)"><use fill="#000" filter="url(#i)" xlink:href="#j"/><path stroke="#EFEFF1" stroke-linejoin="square" fill="#FFF" d="M.5.5h175v103H.5z"/></g><g transform="translate(294 22)"><rect fill="#E1F2FF" y="61" width="99" height="5" rx="2.5"/><path d="M4.172 14.168c2.17 0 3.416-1.092 3.416-2.898 0-1.274-.63-2.338-2.548-2.674l-1.05-.182c-1.386-.238-1.834-.798-1.834-1.666 0-1.106.742-1.68 2.058-1.68 1.218 0 1.918.49 2.464 1.204l.826-.714C6.846 4.62 5.782 4.06 4.228 4.06 2.24 4.06.966 4.984.966 6.776c0 1.232.602 2.338 2.52 2.66l1.092.182c1.33.224 1.82.728 1.82 1.68 0 1.176-.77 1.862-2.184 1.862-1.176 0-1.974-.462-2.73-1.414l-.854.7c.728 1.008 1.792 1.722 3.542 1.722Zm8.022 0c1.19 0 1.75-.63 2.058-1.344h.056V14h1.12V6.776h-1.12v5.012c0 .952-.896 1.386-1.792 1.386-1.106 0-1.708-.644-1.708-1.96V6.776h-1.12v4.634c0 1.75.994 2.758 2.506 2.758Zm9.338 0c1.764 0 2.828-1.414 2.828-3.78 0-2.366-1.064-3.78-2.828-3.78-1.008 0-1.764.462-2.226 1.344h-.056V3.64h-1.12V14h1.12v-1.176h.056c.462.882 1.218 1.344 2.226 1.344Zm-.434-.994c-.994 0-1.848-.518-1.848-1.484V9.086c0-.966.854-1.484 1.848-1.484 1.302 0 2.058.868 2.058 2.17v1.232c0 1.302-.756 2.17-2.058 2.17Zm8.386.994c1.848 0 3.052-.826 3.052-2.254 0-1.568-1.442-1.848-2.478-2.002l-1.134-.168c-.644-.098-1.274-.294-1.274-1.05 0-.742.63-1.148 1.764-1.148 1.274 0 1.918.504 2.254.91l.728-.686c-.686-.728-1.638-1.162-2.94-1.162-1.68 0-2.912.714-2.912 2.156 0 1.568 1.456 1.848 2.478 2.002l1.134.168c.658.098 1.274.294 1.274 1.05 0 .854-.798 1.246-1.918 1.246-1.148 0-1.932-.406-2.618-1.134l-.756.658c.756.854 1.834 1.414 3.346 1.414Zm8.568 0c1.442 0 2.352-.714 2.772-1.68l-.798-.546c-.364.784-.994 1.26-1.96 1.26-1.358 0-2.086-.924-2.086-2.198V9.772c0-1.274.742-2.198 2.058-2.198.896 0 1.512.434 1.778 1.176l.896-.476c-.406-.98-1.274-1.666-2.674-1.666-2.044 0-3.262 1.484-3.262 3.78 0 2.282 1.204 3.78 3.276 3.78ZM49.112 14v-.952h-2.8V9.926c0-1.12.742-2.03 2.156-2.03h1.358v-1.12h-1.008c-1.512 0-2.156.868-2.436 1.82h-.07v-1.82h-3.234v.952h2.114v5.32h-2.114V14h6.034Zm5.936-8.82c.644 0 .882-.308.882-.714v-.224c0-.406-.238-.714-.882-.714s-.882.308-.882.714v.224c0 .406.238.714.882.714ZM58.044 14v-.952h-2.436V6.776h-3.724v.952h2.604v5.32h-2.604V14h6.16Zm3.206 2.8v-3.976h.056c.462.882 1.218 1.344 2.226 1.344 1.764 0 2.828-1.414 2.828-3.78 0-2.366-1.064-3.78-2.828-3.78-1.008 0-1.764.462-2.226 1.344h-.056V6.776h-1.12V16.8h1.12Zm1.848-3.626c-.994 0-1.848-.518-1.848-1.484V9.086c0-.966.854-1.484 1.848-1.484 1.302 0 2.058.868 2.058 2.17v1.232c0 1.302-.756 2.17-2.058 2.17ZM74.564 14v-.952h-3.29v-5.32h3.29v-.952h-3.29V4.228h-1.078v1.89c0 .49-.182.658-.658.658h-1.792v.952h2.408v4.62c0 .966.504 1.652 1.596 1.652h2.814Zm5.684-8.82c.644 0 .882-.308.882-.714v-.224c0-.406-.238-.714-.882-.714s-.882.308-.882.714v.224c0 .406.238.714.882.714ZM83.244 14v-.952h-2.436V6.776h-3.724v.952h2.604v5.32h-2.604V14h6.16Zm4.956.168c2.03 0 3.276-1.484 3.276-3.78s-1.246-3.78-3.276-3.78-3.276 1.484-3.276 3.78 1.246 3.78 3.276 3.78Zm0-.966c-1.246 0-2.086-.742-2.086-2.296V9.87c0-1.554.84-2.296 2.086-2.296s2.086.742 2.086 2.296v1.036c0 1.554-.84 2.296-2.086 2.296Zm6.692.798V8.988c0-.952.896-1.386 1.792-1.386 1.106 0 1.708.644 1.708 1.96V14h1.12V9.366c0-1.75-.994-2.758-2.506-2.758-1.19 0-1.75.63-2.058 1.344h-.056V6.776h-1.12V14h1.12Zm10.192.168c1.848 0 3.052-.826 3.052-2.254 0-1.568-1.442-1.848-2.478-2.002l-1.134-.168c-.644-.098-1.274-.294-1.274-1.05 0-.742.63-1.148 1.764-1.148 1.274 0 1.918.504 2.254.91l.728-.686c-.686-.728-1.638-1.162-2.94-1.162-1.68 0-2.912.714-2.912 2.156 0 1.568 1.456 1.848 2.478 2.002l1.134.168c.658.098 1.274.294 1.274 1.05 0 .854-.798 1.246-1.918 1.246-1.148 0-1.932-.406-2.618-1.134l-.756.658c.756.854 1.834 1.414 3.346 1.414Z" fill="#00000B" fill-rule="nonzero"/><path d="m23.92 45 5.24-11.68V31h-9.44v2.44h6.76L21.28 45h2.64Zm11.28.28c.747 0 1.433-.103 2.06-.31a4.654 4.654 0 0 0 1.61-.89 4.094 4.094 0 0 0 1.05-1.41c.253-.553.38-1.17.38-1.85 0-.48-.073-.91-.22-1.29a3.389 3.389 0 0 0-.59-1 3.735 3.735 0 0 0-.87-.74 4.924 4.924 0 0 0-1.04-.49 3.526 3.526 0 0 0 1.47-1.19c.393-.54.59-1.19.59-1.95 0-.493-.09-.95-.27-1.37a2.853 2.853 0 0 0-.83-1.09c-.373-.307-.843-.547-1.41-.72-.567-.173-1.23-.26-1.99-.26-.72 0-1.363.107-1.93.32-.567.213-1.047.5-1.44.86a3.673 3.673 0 0 0-1.21 2.72c0 .2.02.397.06.59.04.193.087.363.14.51l2.44-.54a1.854 1.854 0 0 1-.08-.29 1.888 1.888 0 0 1-.04-.39c0-.507.193-.903.58-1.19.387-.287.873-.43 1.46-.43.6 0 1.077.15 1.43.45.353.3.53.697.53 1.19 0 .64-.257 1.137-.77 1.49s-1.257.53-2.23.53v1.96c.507 0 .977.04 1.41.12.433.08.81.213 1.13.4.32.187.573.427.76.72.187.293.28.653.28 1.08 0 .733-.23 1.287-.69 1.66-.46.373-1.05.56-1.77.56-.707 0-1.28-.19-1.72-.57-.44-.38-.66-.89-.66-1.53 0-.147.007-.263.02-.35a1.05 1.05 0 0 1 .06-.23l-2.5-.6c-.067.173-.12.377-.16.61-.04.233-.06.443-.06.63 0 .56.107 1.1.32 1.62.213.52.53.977.95 1.37.42.393.943.707 1.57.94.627.233 1.353.35 2.18.35Zm12.38 0c.747 0 1.437-.12 2.07-.36a4.998 4.998 0 0 0 1.65-1.01 4.567 4.567 0 0 0 1.48-3.41 4.94 4.94 0 0 0-.35-1.88 4.178 4.178 0 0 0-.99-1.47 4.686 4.686 0 0 0-1.52-.96 5.15 5.15 0 0 0-1.92-.35c-.68 0-1.31.137-1.89.41a5.043 5.043 0 0 0-1.49 1.05c.053-.6.16-1.177.32-1.73.16-.553.373-1.037.64-1.45.267-.413.59-.743.97-.99s.817-.37 1.31-.37c.52 0 .957.113 1.31.34.353.227.53.573.53 1.04 0 .213-.047.433-.14.66l2.44.52c.147-.333.22-.707.22-1.12 0-.507-.1-.973-.3-1.4a3.08 3.08 0 0 0-.87-1.1 4.247 4.247 0 0 0-1.37-.72c-.533-.173-1.14-.26-1.82-.26-1.133 0-2.12.303-2.96.91-.84.607-1.493 1.47-1.96 2.59a10.866 10.866 0 0 0-.6 2.02c-.147.733-.22 1.593-.22 2.58 0 1.027.13 1.94.39 2.74.26.8.627 1.477 1.1 2.03a4.609 4.609 0 0 0 1.72 1.26c.673.287 1.423.43 2.25.43Zm-.04-2.16a3.12 3.12 0 0 1-1.03-.17 2.41 2.41 0 0 1-.85-.5c-.24-.22-.43-.49-.57-.81-.14-.32-.21-.68-.21-1.08 0-.413.07-.777.21-1.09.14-.313.33-.58.57-.8.24-.22.523-.387.85-.5a3.12 3.12 0 0 1 1.03-.17c.36 0 .703.057 1.03.17.327.113.613.28.86.5.247.22.44.487.58.8.14.313.21.677.21 1.09 0 .4-.07.76-.21 1.08-.14.32-.333.59-.58.81-.247.22-.533.387-.86.5a3.12 3.12 0 0 1-1.03.17Zm12 2.16c.773 0 1.47-.1 2.09-.3.62-.2 1.147-.48 1.58-.84a3.64 3.64 0 0 0 1-1.31c.233-.513.35-1.083.35-1.71 0-.853-.213-1.593-.64-2.22-.427-.627-1.013-1.093-1.76-1.4.64-.32 1.13-.737 1.47-1.25.34-.513.51-1.13.51-1.85 0-.533-.11-1.027-.33-1.48a3.381 3.381 0 0 0-.94-1.17 4.46 4.46 0 0 0-1.46-.76 6.152 6.152 0 0 0-1.87-.27c-.68 0-1.303.09-1.87.27a4.46 4.46 0 0 0-1.46.76c-.407.327-.72.717-.94 1.17-.22.453-.33.947-.33 1.48 0 .72.17 1.337.51 1.85.34.513.83.93 1.47 1.25-.747.307-1.333.773-1.76 1.4-.427.627-.64 1.367-.64 2.22 0 .627.117 1.197.35 1.71.233.513.567.95 1 1.31.433.36.96.64 1.58.84.62.2 1.317.3 2.09.3Zm0-8.76c-.267 0-.527-.043-.78-.13a2.112 2.112 0 0 1-.67-.37 1.72 1.72 0 0 1-.46-.6c-.113-.24-.17-.52-.17-.84 0-.32.057-.597.17-.83.113-.233.267-.43.46-.59.193-.16.417-.28.67-.36a2.575 2.575 0 0 1 1.56 0c.253.08.477.2.67.36.193.16.347.357.46.59.113.233.17.51.17.83 0 .32-.057.6-.17.84a1.72 1.72 0 0 1-.46.6c-.193.16-.417.283-.67.37-.253.087-.513.13-.78.13Zm0 6.6c-.707 0-1.293-.207-1.76-.62-.467-.413-.7-.947-.7-1.6 0-.653.233-1.187.7-1.6.467-.413 1.053-.62 1.76-.62.707 0 1.293.207 1.76.62.467.413.7.947.7 1.6 0 .653-.233 1.187-.7 1.6-.467.413-1.053.62-1.76.62Z" fill="#FF3C68" fill-rule="nonzero"/><path fill="#FF526C" fill-rule="nonzero" d="M5.668 33.114v8.268l-2.99-2.99-1.586 1.586 5.642 5.668 5.642-5.668-1.586-1.586-2.99 2.99v-8.268z"/></g></g><g mask="url(#d)"><g transform="translate(502 6)"><use fill="#000" filter="url(#k)" xlink:href="#l"/><path stroke="#EFEFF1" stroke-linejoin="square" fill="#FFF" d="M.5.5h175v103H.5z"/></g><g transform="translate(518 25)"><rect fill="#D8D8D8" y="58" width="99" height="5" rx="2.5"/><path d="M2.184 11V2.726h.098L5.614 11H7.28V1.228H6.216v8.19h-.098l-3.332-8.19H1.12V11h1.064Zm10.542.168c1.428 0 2.464-.7 2.898-1.666l-.826-.56c-.378.784-1.106 1.26-2.072 1.26-1.358 0-2.212-.924-2.212-2.198v-.336h5.348v-.532c0-2.044-1.26-3.528-3.206-3.528-1.96 0-3.318 1.484-3.318 3.794 0 2.282 1.316 3.766 3.388 3.766Zm1.932-4.34h-4.144V6.73c0-1.26.91-2.198 2.142-2.198 1.19 0 2.002.868 2.002 2.142v.154ZM24.164 11v-.952h-3.29v-5.32h3.29v-.952h-3.29V1.228h-1.078v1.89c0 .49-.182.658-.658.658h-1.792v.952h2.408v4.62c0 .966.504 1.652 1.596 1.652h2.814Zm13.958.168c1.792 0 2.534-1.078 3.01-2.142l-1.008-.462c-.35.868-.812 1.582-2.002 1.582-1.554 0-2.296-1.274-2.296-3.234V5.316c0-1.96.742-3.234 2.296-3.234 1.19 0 1.652.714 2.002 1.582l1.008-.462c-.476-1.064-1.218-2.142-3.01-2.142-2.38 0-3.542 1.806-3.542 5.054s1.162 5.054 3.542 5.054Zm6.37-.168V5.988c0-.952.896-1.386 1.792-1.386 1.106 0 1.708.644 1.708 1.96V11h1.12V6.366c0-1.75-.994-2.758-2.506-2.758-1.19 0-1.75.63-2.058 1.344h-.056V.64h-1.12V11h1.12Zm9.702.168c1.19 0 1.75-.63 2.058-1.344h.056V11h1.12V3.776h-1.12v5.012c0 .952-.896 1.386-1.792 1.386-1.106 0-1.708-.644-1.708-1.96V3.776h-1.12V8.41c0 1.75.994 2.758 2.506 2.758ZM65.912 11v-.952h-2.8V6.926c0-1.12.742-2.03 2.156-2.03h1.358v-1.12h-1.008c-1.512 0-2.156.868-2.436 1.82h-.07v-1.82h-3.234v.952h2.114v5.32h-2.114V11h6.034Zm3.78 0V5.988c0-.952.896-1.386 1.792-1.386 1.106 0 1.708.644 1.708 1.96V11h1.12V6.366c0-1.75-.994-2.758-2.506-2.758-1.19 0-1.75.63-2.058 1.344h-.056V3.776h-1.12V11h1.12Z" fill="#00000B" fill-rule="nonzero"/><path d="M25.02 42.28c.747 0 1.433-.103 2.06-.31a4.654 4.654 0 0 0 1.61-.89 4.094 4.094 0 0 0 1.05-1.41c.253-.553.38-1.17.38-1.85 0-.48-.073-.91-.22-1.29a3.389 3.389 0 0 0-.59-1 3.735 3.735 0 0 0-.87-.74 4.924 4.924 0 0 0-1.04-.49 3.526 3.526 0 0 0 1.47-1.19c.393-.54.59-1.19.59-1.95 0-.493-.09-.95-.27-1.37a2.853 2.853 0 0 0-.83-1.09c-.373-.307-.843-.547-1.41-.72-.567-.173-1.23-.26-1.99-.26-.72 0-1.363.107-1.93.32-.567.213-1.047.5-1.44.86a3.673 3.673 0 0 0-1.21 2.72c0 .2.02.397.06.59.04.193.087.363.14.51l2.44-.54a1.854 1.854 0 0 1-.08-.29 1.888 1.888 0 0 1-.04-.39c0-.507.193-.903.58-1.19.387-.287.873-.43 1.46-.43.6 0 1.077.15 1.43.45.353.3.53.697.53 1.19 0 .64-.257 1.137-.77 1.49s-1.257.53-2.23.53v1.96c.507 0 .977.04 1.41.12.433.08.81.213 1.13.4.32.187.573.427.76.72.187.293.28.653.28 1.08 0 .733-.23 1.287-.69 1.66-.46.373-1.05.56-1.77.56-.707 0-1.28-.19-1.72-.57-.44-.38-.66-.89-.66-1.53 0-.147.007-.263.02-.35a1.05 1.05 0 0 1 .06-.23l-2.5-.6c-.067.173-.12.377-.16.61-.04.233-.06.443-.06.63 0 .56.107 1.1.32 1.62.213.52.53.977.95 1.37.42.393.943.707 1.57.94.627.233 1.353.35 2.18.35Zm12.38 0c.747 0 1.437-.12 2.07-.36a4.998 4.998 0 0 0 1.65-1.01 4.567 4.567 0 0 0 1.48-3.41 4.94 4.94 0 0 0-.35-1.88 4.178 4.178 0 0 0-.99-1.47 4.686 4.686 0 0 0-1.52-.96 5.15 5.15 0 0 0-1.92-.35c-.68 0-1.31.137-1.89.41a5.043 5.043 0 0 0-1.49 1.05c.053-.6.16-1.177.32-1.73.16-.553.373-1.037.64-1.45.267-.413.59-.743.97-.99s.817-.37 1.31-.37c.52 0 .957.113 1.31.34.353.227.53.573.53 1.04 0 .213-.047.433-.14.66l2.44.52c.147-.333.22-.707.22-1.12 0-.507-.1-.973-.3-1.4a3.08 3.08 0 0 0-.87-1.1 4.247 4.247 0 0 0-1.37-.72c-.533-.173-1.14-.26-1.82-.26-1.133 0-2.12.303-2.96.91-.84.607-1.493 1.47-1.96 2.59a10.866 10.866 0 0 0-.6 2.02c-.147.733-.22 1.593-.22 2.58 0 1.027.13 1.94.39 2.74.26.8.627 1.477 1.1 2.03a4.609 4.609 0 0 0 1.72 1.26c.673.287 1.423.43 2.25.43Zm-.04-2.16a3.12 3.12 0 0 1-1.03-.17 2.41 2.41 0 0 1-.85-.5c-.24-.22-.43-.49-.57-.81-.14-.32-.21-.68-.21-1.08 0-.413.07-.777.21-1.09.14-.313.33-.58.57-.8.24-.22.523-.387.85-.5a3.12 3.12 0 0 1 1.03-.17c.36 0 .703.057 1.03.17.327.113.613.28.86.5.247.22.44.487.58.8.14.313.21.677.21 1.09 0 .4-.07.76-.21 1.08-.14.32-.333.59-.58.81-.247.22-.533.387-.86.5a3.12 3.12 0 0 1-1.03.17Zm10.4-5.4c.507 0 .973-.09 1.4-.27.427-.18.793-.423 1.1-.73.307-.307.547-.673.72-1.1.173-.427.26-.893.26-1.4 0-.493-.087-.957-.26-1.39a3.26 3.26 0 0 0-.72-1.11 3.411 3.411 0 0 0-1.1-.73 3.565 3.565 0 0 0-1.4-.27c-.507 0-.973.09-1.4.27-.427.18-.793.423-1.1.73a3.26 3.26 0 0 0-.72 1.11c-.173.433-.26.897-.26 1.39 0 .507.087.973.26 1.4.173.427.413.793.72 1.1.307.307.673.55 1.1.73.427.18.893.27 1.4.27Zm.78 7.42 8.7-13.3-1.44-.98-8.7 13.3 1.44.98ZM47.76 33c-.467 0-.857-.163-1.17-.49-.313-.327-.47-.757-.47-1.29s.157-.963.47-1.29c.313-.327.703-.49 1.17-.49.467 0 .857.163 1.17.49.313.327.47.757.47 1.29s-.157.963-.47 1.29c-.313.327-.703.49-1.17.49Zm8.82 9.28c.507 0 .973-.09 1.4-.27.427-.18.793-.423 1.1-.73.307-.307.547-.673.72-1.1.173-.427.26-.893.26-1.4 0-.493-.087-.957-.26-1.39a3.26 3.26 0 0 0-.72-1.11 3.411 3.411 0 0 0-1.1-.73 3.565 3.565 0 0 0-1.4-.27c-.507 0-.973.09-1.4.27-.427.18-.793.423-1.1.73a3.26 3.26 0 0 0-.72 1.11c-.173.433-.26.897-.26 1.39 0 .507.087.973.26 1.4.173.427.413.793.72 1.1.307.307.673.55 1.1.73.427.18.893.27 1.4.27Zm0-1.72c-.467 0-.857-.163-1.17-.49-.313-.327-.47-.757-.47-1.29s.157-.963.47-1.29c.313-.327.703-.49 1.17-.49.467 0 .857.163 1.17.49.313.327.47.757.47 1.29s-.157.963-.47 1.29c-.313.327-.703.49-1.17.49ZM5.668 30.114v8.268l-2.99-2.99-1.586 1.586 5.642 5.668 5.642-5.668-1.586-1.586-2.99 2.99v-8.268z" fill="#FFC700" fill-rule="nonzero"/></g></g><g mask="url(#d)"><path stroke="#AAC0D7" stroke-linecap="square" stroke-dasharray="2,6" d="M462.517 305.5h414.998M462.517 272.5h414.998M462.517 239.5h414.998"/><g stroke-linecap="round" stroke-linejoin="round" transform="translate(462 238)"><use fill="#000" filter="url(#m)" xlink:href="#n"/><use stroke="#070" stroke-width="2" xlink:href="#n"/></g></g><path fill="#E1F2FF" mask="url(#d)" d="M97 302h24v26H97zM153 302h24v26h-24z"/><path fill="#95E0D7" mask="url(#d)" d="M206 302h24v26h-24z"/><path fill="#D8D8D8" mask="url(#d)" d="M259 315h24v13h-24zM312 315h24v13h-24zM362 315h24v13h-24z"/><path fill="#E1F2FF" mask="url(#d)" d="M97 288h24v12H97zM153 286h24v14h-24z"/><path fill="#F3D690" mask="url(#d)" d="M206 286h24v14h-24z"/><path fill="#D8D8D8" mask="url(#d)" d="M259 299h24v14h-24zM312 299h24v14h-24zM362 299h24v14h-24z"/><path d="M101 274h16a4 4 0 0 1 4 4v8H97v-8a4 4 0 0 1 4-4ZM157 263h16a4 4 0 0 1 4 4v17h-24v-17a4 4 0 0 1 4-4Z" fill="#E1F2FF" mask="url(#d)"/><path d="M210 254h16a4 4 0 0 1 4 4v26h-24v-26a4 4 0 0 1 4-4Z" fill="#C898D6" mask="url(#d)"/><path d="M263 267h16a4 4 0 0 1 4 4v26h-24v-26a4 4 0 0 1 4-4ZM316 263h16a4 4 0 0 1 4 4v30h-24v-30a4 4 0 0 1 4-4ZM366 258h16a4 4 0 0 1 4 4v35h-24v-35a4 4 0 0 1 4-4Z" fill="#D8D8D8" mask="url(#d)"/><g mask="url(#d)"><g transform="translate(248 239)"><use fill="#000" filter="url(#o)" xlink:href="#p"/><path stroke="#EBF2FE" stroke-width="2" d="M140 1H10a2.99 2.99 0 0 0-2.121.879A2.99 2.99 0 0 0 7 4v22.308l-5.404 4.2L7 34.995V164c0 .828.336 1.578.879 2.121A2.99 2.99 0 0 0 10 167h130a2.99 2.99 0 0 0 2.121-.879A2.99 2.99 0 0 0 143 164V4a2.99 2.99 0 0 0-.879-2.121A2.99 2.99 0 0 0 140 1Z" stroke-linejoin="square" fill="#FFF"/><path d="M35.372 24.144c1.152 0 1.62-.612 1.896-1.26h.06V24h.936v-4.14h-2.7v.804h1.764v.864c0 1.032-.648 1.764-1.728 1.764-1.368 0-1.86-1.188-1.86-2.868v-1.296c0-1.68.612-2.772 1.956-2.772 1.008 0 1.404.612 1.704 1.356l.864-.396c-.36-.912-1.032-1.836-2.604-1.836-2.016 0-2.988 1.536-2.988 4.392 0 2.736.888 4.272 2.7 4.272ZM45.296 24v-.816h-2.4v-2.676c0-.96.636-1.74 1.848-1.74h1.164v-.96h-.864c-1.296 0-1.848.744-2.088 1.56h-.06v-1.56h-2.772v.816h1.812v4.56h-1.812V24h5.172Zm4.704.144c1.74 0 2.808-1.272 2.808-3.24 0-1.968-1.068-3.24-2.808-3.24-1.74 0-2.808 1.272-2.808 3.24 0 1.968 1.068 3.24 2.808 3.24Zm0-.828c-1.068 0-1.788-.636-1.788-1.968v-.888c0-1.332.72-1.968 1.788-1.968s1.788.636 1.788 1.968v.888c0 1.332-.72 1.968-1.788 1.968Zm6.156.684 1.008-5.184h.096L58.244 24h1.248l.948-6.192h-.828l-.708 5.352h-.108l-1.056-5.352h-1.056l-1.056 5.352h-.108l-.708-5.352h-.852L54.908 24h1.248Zm8.244-4.644c.648 0 .888-.312.888-.72v-.216c0-.408-.24-.72-.888-.72s-.888.312-.888.72v.216c0 .408.24.72.888.72Zm0 4.752c.648 0 .888-.312.888-.72v-.216c0-.408-.24-.72-.888-.72s-.888.312-.888.72v.216c0 .408.24.72.888.72Z" fill="#00000B" fill-rule="nonzero" opacity=".54"/><path d="M40.74 43v-6.852h.096l1.764 4.308 1.764-4.308h.096V43h.924v-8.376h-1.248L42.66 38.32h-.072l-1.476-3.696h-1.296V43h.924Zm7.548 0v-3.576h1.332L51.66 43h1.128l-2.136-3.624c1.332-.132 2.064-.996 2.064-2.34 0-1.512-.84-2.412-2.388-2.412H47.28V43h1.008Zm2.016-4.428h-2.016V35.5h2.016c.84 0 1.344.444 1.344 1.224v.624c0 .78-.504 1.224-1.344 1.224ZM55.488 43v-3.576h1.332L58.86 43h1.128l-2.136-3.624c1.332-.132 2.064-.996 2.064-2.34 0-1.512-.84-2.412-2.388-2.412H54.48V43h1.008Zm2.016-4.428h-2.016V35.5h2.016c.84 0 1.344.444 1.344 1.224v.624c0 .78-.504 1.224-1.344 1.224Zm6.696-.216c.648 0 .888-.312.888-.72v-.216c0-.408-.24-.72-.888-.72s-.888.312-.888.72v.216c0 .408.24.72.888.72Zm0 4.752c.648 0 .888-.312.888-.72v-.216c0-.408-.24-.72-.888-.72s-.888.312-.888.72v.216c0 .408.24.72.888.72Z" fill="#00000B" fill-rule="nonzero"/><path d="M82.636 24v-.876h-2.208v-7.5h-1.572l-2.22 2.076.588.636 2.112-1.968h.084v6.756h-2.4V24h5.616Zm4.164.144c1.944 0 2.94-1.044 2.94-2.424 0-1.14-.684-1.8-1.704-2.076v-.096c.888-.3 1.452-1.008 1.452-1.968 0-1.272-.996-2.1-2.688-2.1-1.692 0-2.688.828-2.688 2.1 0 .96.564 1.668 1.452 1.968v.096c-1.02.276-1.704.936-1.704 2.076 0 1.38.996 2.424 2.94 2.424Zm0-4.956c-1.08 0-1.668-.492-1.668-1.344v-.168c0-.852.612-1.344 1.668-1.344s1.668.492 1.668 1.344v.168c0 .852-.588 1.344-1.668 1.344Zm0 4.104c-1.176 0-1.896-.564-1.896-1.512v-.264c0-.96.696-1.512 1.896-1.512s1.896.552 1.896 1.512v.264c0 .948-.72 1.512-1.896 1.512Z" fill="#00000B" fill-rule="nonzero" opacity=".54"/><circle fill="#95E0D7" cx="20" cy="20" r="4"/><path d="M80.092 44.356v-1.224c1.62-.132 2.532-1.032 2.532-2.424 0-1.128-.54-2.064-2.184-2.34l-.36-.06v-2.94c.792.084 1.32.444 1.752 1.02l.756-.54c-.6-.816-1.392-1.272-2.496-1.356v-1.224h-.744v1.224c-1.512.108-2.448.924-2.448 2.268 0 1.092.528 2.052 2.184 2.328l.276.048v3.132c-.84-.084-1.452-.48-2.028-1.2l-.732.6c.576.804 1.416 1.38 2.748 1.464v1.224h.744Zm-.732-6.168c-1.068-.216-1.488-.648-1.488-1.428 0-.828.54-1.308 1.488-1.404v2.832Zm.72 4.068v-3c1.116.192 1.572.612 1.572 1.464 0 .876-.564 1.428-1.572 1.536Zm6.66.888c1.788 0 2.856-1.14 2.856-2.772 0-1.62-1.068-2.58-2.532-2.58-.888 0-1.344.348-1.752.912h-.084l.24-3.204h3.744v-.876h-4.56l-.3 4.608.852.12c.36-.396.744-.708 1.536-.708 1.164 0 1.812.66 1.812 1.764v.096c0 1.092-.636 1.764-1.788 1.764-1.032 0-1.488-.468-1.932-1.128l-.756.576c.516.72 1.248 1.428 2.664 1.428ZM93.796 43c1.368-.876 3.036-2.82 3.036-5.304 0-1.992-1.08-3.216-2.844-3.216-1.704 0-2.82 1.128-2.82 2.772 0 1.584 1.044 2.58 2.508 2.58 1.044 0 1.656-.516 2.064-1.2l.06.024c-.468 1.944-1.476 3.036-3.3 4.344h1.296ZM94 39.004c-1.14 0-1.812-.66-1.812-1.788v-.096c0-1.128.672-1.788 1.812-1.788 1.14 0 1.812.66 1.812 1.788v.096c0 1.128-.672 1.788-1.812 1.788ZM100.996 43c1.368-.876 3.036-2.82 3.036-5.304 0-1.992-1.08-3.216-2.844-3.216-1.704 0-2.82 1.128-2.82 2.772 0 1.584 1.044 2.58 2.508 2.58 1.044 0 1.656-.516 2.064-1.2l.06.024c-.468 1.944-1.476 3.036-3.3 4.344h1.296Zm.204-3.996c-1.14 0-1.812-.66-1.812-1.788v-.096c0-1.128.672-1.788 1.812-1.788 1.14 0 1.812.66 1.812 1.788v.096c0 1.128-.672 1.788-1.812 1.788ZM111.244 43v-.876h-4.548l2.34-2.04c1.116-.972 1.872-1.908 1.872-3.18 0-1.416-.936-2.424-2.604-2.424-1.644 0-2.4.984-2.724 1.968l.9.336c.264-.864.78-1.428 1.8-1.428 1.032 0 1.572.576 1.572 1.584v.144c0 .852-.588 1.632-1.404 2.364l-2.796 2.52V43h5.592Z" fill="#00000B" fill-rule="nonzero"/><path d="M42.576 70.144c1.86 0 2.928-.936 2.928-2.484 0-1.092-.54-2.004-2.184-2.292l-.9-.156c-1.188-.204-1.572-.684-1.572-1.428 0-.948.636-1.44 1.764-1.44 1.044 0 1.644.42 2.112 1.032l.708-.612c-.564-.804-1.476-1.284-2.808-1.284-1.704 0-2.796.792-2.796 2.328 0 1.056.516 2.004 2.16 2.28l.936.156c1.14.192 1.56.624 1.56 1.44 0 1.008-.66 1.596-1.872 1.596-1.008 0-1.692-.396-2.34-1.212l-.732.6c.624.864 1.536 1.476 3.036 1.476ZM48.42 70v-2.244l1.068-.972L51.9 70h1.188l-2.868-3.768 2.568-2.424h-1.176l-2.064 1.896-1.08 1.02h-.048V61.12h-.96V70h.96Zm6.888 2.4c.936 0 1.296-.336 1.584-1.044l3.072-7.548h-.96L57.96 66.4l-.924 2.352h-.048l-.924-2.352-1.044-2.592h-.984l2.496 6.072-.696 1.704h-1.44v.816h.912Zm8.892-7.044c.648 0 .888-.312.888-.72v-.216c0-.408-.24-.72-.888-.72s-.888.312-.888.72v.216c0 .408.24.72.888.72Zm0 4.752c.648 0 .888-.312.888-.72v-.216c0-.408-.24-.72-.888-.72s-.888.312-.888.72v.216c0 .408.24.72.888.72Z" fill="#00000B" fill-rule="nonzero" opacity=".54"/><path d="M40.74 89v-6.852h.096l1.764 4.308 1.764-4.308h.096V89h.924v-8.376h-1.248L42.66 84.32h-.072l-1.476-3.696h-1.296V89h.924Zm7.548 0v-3.576h1.332L51.66 89h1.128l-2.136-3.624c1.332-.132 2.064-.996 2.064-2.34 0-1.512-.84-2.412-2.388-2.412H47.28V89h1.008Zm2.016-4.428h-2.016V81.5h2.016c.84 0 1.344.444 1.344 1.224v.624c0 .78-.504 1.224-1.344 1.224ZM55.488 89v-3.576h1.332L58.86 89h1.128l-2.136-3.624c1.332-.132 2.064-.996 2.064-2.34 0-1.512-.84-2.412-2.388-2.412H54.48V89h1.008Zm2.016-4.428h-2.016V81.5h2.016c.84 0 1.344.444 1.344 1.224v.624c0 .78-.504 1.224-1.344 1.224Zm6.696-.216c.648 0 .888-.312.888-.72v-.216c0-.408-.24-.72-.888-.72s-.888.312-.888.72v.216c0 .408.24.72.888.72Zm0 4.752c.648 0 .888-.312.888-.72v-.216c0-.408-.24-.72-.888-.72s-.888.312-.888.72v.216c0 .408.24.72.888.72Z" fill="#00000B" fill-rule="nonzero"/><path d="M79.54 70.144c1.788 0 2.856-1.14 2.856-2.772 0-1.62-1.068-2.58-2.532-2.58-.888 0-1.344.348-1.752.912h-.084l.24-3.204h3.744v-.876h-4.56l-.3 4.608.852.12c.36-.396.744-.708 1.536-.708 1.164 0 1.812.66 1.812 1.764v.096c0 1.092-.636 1.764-1.788 1.764-1.032 0-1.488-.468-1.932-1.128l-.756.576c.516.72 1.248 1.428 2.664 1.428Z" fill="#00000B" fill-rule="nonzero" opacity=".54"/><circle fill="#F3D690" cx="20" cy="66" r="4"/><path d="M80.092 90.356v-1.224c1.62-.132 2.532-1.032 2.532-2.424 0-1.128-.54-2.064-2.184-2.34l-.36-.06v-2.94c.792.084 1.32.444 1.752 1.02l.756-.54c-.6-.816-1.392-1.272-2.496-1.356v-1.224h-.744v1.224c-1.512.108-2.448.924-2.448 2.268 0 1.092.528 2.052 2.184 2.328l.276.048v3.132c-.84-.084-1.452-.48-2.028-1.2l-.732.6c.576.804 1.416 1.38 2.748 1.464v1.224h.744Zm-.732-6.168c-1.068-.216-1.488-.648-1.488-1.428 0-.828.54-1.308 1.488-1.404v2.832Zm.72 4.068v-3c1.116.192 1.572.612 1.572 1.464 0 .876-.564 1.428-1.572 1.536Zm8.616.744v-1.644h1.248v-.828h-1.248v-5.904h-1.464l-3.624 5.844v.888h4.128V89h.96Zm-.96-2.472h-3.228l3.18-5.124h.048v5.124Zm5.988 2.616c1.74 0 2.892-.996 2.892-2.436 0-1.26-.876-1.932-1.8-2.112v-.048c.912-.228 1.632-.876 1.632-1.956 0-1.356-1.14-2.112-2.568-2.112-1.368 0-2.112.696-2.544 1.368l.756.576c.348-.636.876-1.068 1.764-1.068.912 0 1.536.456 1.536 1.344v.084c0 .804-.588 1.392-1.752 1.392h-.924v.864h.996c1.224 0 1.848.576 1.848 1.56v.096c0 .996-.66 1.572-1.836 1.572-1.056 0-1.548-.468-1.992-1.128l-.756.576c.516.72 1.272 1.428 2.748 1.428Zm10.32-.144v-.876h-4.548l2.34-2.04c1.116-.972 1.872-1.908 1.872-3.18 0-1.416-.936-2.424-2.604-2.424-1.644 0-2.4.984-2.724 1.968l.9.336c.264-.864.78-1.428 1.8-1.428 1.032 0 1.572.576 1.572 1.584v.144c0 .852-.588 1.632-1.404 2.364l-2.796 2.52V89h5.592Zm4.296.144c1.788 0 2.856-1.14 2.856-2.772 0-1.62-1.068-2.58-2.532-2.58-.888 0-1.344.348-1.752.912h-.084l.24-3.204h3.744v-.876h-4.56l-.3 4.608.852.12c.36-.396.744-.708 1.536-.708 1.164 0 1.812.66 1.812 1.764v.096c0 1.092-.636 1.764-1.788 1.764-1.032 0-1.488-.468-1.932-1.128l-.756.576c.516.72 1.248 1.428 2.664 1.428Z" fill="#00000B" fill-rule="nonzero"/><path d="M33.968 116v-3.804h3.264V116h1.008v-8.376h-1.008v3.696h-3.264v-3.696H32.96V116h1.008Zm9.216-7.56c.552 0 .756-.264.756-.612v-.192c0-.348-.204-.612-.756-.612s-.756.264-.756.612v.192c0 .348.204.612.756.612Zm2.568 7.56v-.816h-2.088v-5.376h-3.192v.816h2.232v4.56h-2.232V116h5.28Zm4.26 2.544c2.064 0 3.12-.588 3.12-1.836 0-1.008-.684-1.656-2.28-1.656h-1.368c-.588 0-.996-.084-.996-.456 0-.42.516-.636.888-.708.192.036.384.048.588.048 1.452 0 2.412-.876 2.412-2.136 0-.648-.252-1.188-.696-1.572v-.42h1.392v-.84h-1.14c-.54 0-.744.36-.744.84v.108c-.348-.168-.756-.252-1.224-.252-1.452 0-2.4.876-2.4 2.136 0 .876.456 1.56 1.212 1.896v.048c-.636.156-1.116.444-1.116 1.08 0 .42.204.684.552.852v.144c-.636.168-1.008.528-1.008 1.188 0 .984.816 1.536 2.808 1.536Zm-.048-5.352c-.948 0-1.392-.492-1.392-1.224v-.348c0-.732.444-1.212 1.392-1.212.96 0 1.404.48 1.404 1.212v.348c0 .732-.444 1.224-1.404 1.224Zm.492 4.584h-.936c-1.008 0-1.404-.456-1.404-.996 0-.396.216-.672.624-.84h2.148c.996 0 1.344.324 1.344.816 0 .672-.66 1.02-1.776 1.02Zm5.28-1.776v-4.296c0-.816.768-1.188 1.536-1.188.948 0 1.464.552 1.464 1.68V116h.96v-3.972c0-1.5-.852-2.364-2.148-2.364-1.02 0-1.5.54-1.764 1.152h-.048v-3.696h-.96V116h.96Zm8.664-4.644c.648 0 .888-.312.888-.72v-.216c0-.408-.24-.72-.888-.72s-.888.312-.888.72v.216c0 .408.24.72.888.72Zm0 4.752c.648 0 .888-.312.888-.72v-.216c0-.408-.24-.72-.888-.72s-.888.312-.888.72v.216c0 .408.24.72.888.72Z" fill="#00000B" fill-rule="nonzero" opacity=".54"/><path d="M40.74 135v-6.852h.096l1.764 4.308 1.764-4.308h.096V135h.924v-8.376h-1.248l-1.476 3.696h-.072l-1.476-3.696h-1.296V135h.924Zm7.548 0v-3.576h1.332L51.66 135h1.128l-2.136-3.624c1.332-.132 2.064-.996 2.064-2.34 0-1.512-.84-2.412-2.388-2.412H47.28V135h1.008Zm2.016-4.428h-2.016V127.5h2.016c.84 0 1.344.444 1.344 1.224v.624c0 .78-.504 1.224-1.344 1.224ZM55.488 135v-3.576h1.332L58.86 135h1.128l-2.136-3.624c1.332-.132 2.064-.996 2.064-2.34 0-1.512-.84-2.412-2.388-2.412H54.48V135h1.008Zm2.016-4.428h-2.016V127.5h2.016c.84 0 1.344.444 1.344 1.224v.624c0 .78-.504 1.224-1.344 1.224Zm6.696-.216c.648 0 .888-.312.888-.72v-.216c0-.408-.24-.72-.888-.72s-.888.312-.888.72v.216c0 .408.24.72.888.72Zm0 4.752c.648 0 .888-.312.888-.72v-.216c0-.408-.24-.72-.888-.72s-.888.312-.888.72v.216c0 .408.24.72.888.72Z" fill="#00000B" fill-rule="nonzero"/><path d="M82.636 116v-.876h-2.208v-7.5h-1.572l-2.22 2.076.588.636 2.112-1.968h.084v6.756h-2.4V116h5.616Zm4.164.144c2.04 0 2.928-1.596 2.928-4.332 0-2.736-.888-4.332-2.928-4.332s-2.928 1.596-2.928 4.332c0 2.736.888 4.332 2.928 4.332Zm0-.876c-1.344 0-1.884-1.092-1.884-2.772v-1.368c0-1.68.54-2.772 1.884-2.772 1.344 0 1.884 1.092 1.884 2.772v1.368c0 1.68-.54 2.772-1.884 2.772Zm0-2.748c.552 0 .744-.252.744-.576v-.264c0-.324-.192-.576-.744-.576s-.744.252-.744.576v.264c0 .324.192.576.744.576Z" fill="#00000B" fill-rule="nonzero" opacity=".54"/><circle fill="#C898D6" cx="20" cy="112" r="4"/><path d="M80.092 136.356v-1.224c1.62-.132 2.532-1.032 2.532-2.424 0-1.128-.54-2.064-2.184-2.34l-.36-.06v-2.94c.792.084 1.32.444 1.752 1.02l.756-.54c-.6-.816-1.392-1.272-2.496-1.356v-1.224h-.744v1.224c-1.512.108-2.448.924-2.448 2.268 0 1.092.528 2.052 2.184 2.328l.276.048v3.132c-.84-.084-1.452-.48-2.028-1.2l-.732.6c.576.804 1.416 1.38 2.748 1.464v1.224h.744Zm-.732-6.168c-1.068-.216-1.488-.648-1.488-1.428 0-.828.54-1.308 1.488-1.404v2.832Zm.72 4.068v-3c1.116.192 1.572.612 1.572 1.464 0 .876-.564 1.428-1.572 1.536Zm6.276.744 3.216-7.488v-.888H83.98v2.424h.9v-1.56h3.672L85.276 135h1.08Zm7.644.144c2.04 0 2.928-1.596 2.928-4.332 0-2.736-.888-4.332-2.928-4.332s-2.928 1.596-2.928 4.332c0 2.736.888 4.332 2.928 4.332Zm0-.876c-1.344 0-1.884-1.092-1.884-2.772v-1.368c0-1.68.54-2.772 1.884-2.772 1.344 0 1.884 1.092 1.884 2.772v1.368c0 1.68-.54 2.772-1.884 2.772Zm0-2.748c.552 0 .744-.252.744-.576v-.264c0-.324-.192-.576-.744-.576s-.744.252-.744.576v.264c0 .324.192.576.744.576Zm7.2 3.624c2.04 0 2.928-1.596 2.928-4.332 0-2.736-.888-4.332-2.928-4.332s-2.928 1.596-2.928 4.332c0 2.736.888 4.332 2.928 4.332Zm0-.876c-1.344 0-1.884-1.092-1.884-2.772v-1.368c0-1.68.54-2.772 1.884-2.772 1.344 0 1.884 1.092 1.884 2.772v1.368c0 1.68-.54 2.772-1.884 2.772Zm0-2.748c.552 0 .744-.252.744-.576v-.264c0-.324-.192-.576-.744-.576s-.744.252-.744.576v.264c0 .324.192.576.744.576Zm7.2 3.624c2.04 0 2.928-1.596 2.928-4.332 0-2.736-.888-4.332-2.928-4.332s-2.928 1.596-2.928 4.332c0 2.736.888 4.332 2.928 4.332Zm0-.876c-1.344 0-1.884-1.092-1.884-2.772v-1.368c0-1.68.54-2.772 1.884-2.772 1.344 0 1.884 1.092 1.884 2.772v1.368c0 1.68-.54 2.772-1.884 2.772Zm0-2.748c.552 0 .744-.252.744-.576v-.264c0-.324-.192-.576-.744-.576s-.744.252-.744.576v.264c0 .324.192.576.744.576Z" fill="#00000B" fill-rule="nonzero"/></g></g><path fill="url(#q)" mask="url(#d)" d="M0 318h555v62H0z"/><path fill="url(#r)" mask="url(#d)" transform="rotate(-90 503.5 90)" d="M226 38h555v104H226z"/></g></svg>