<svg xmlns="http://www.w3.org/2000/svg" width="200" height="21.2" style="enable-background:new 0 0 200 21.2" xml:space="preserve"><path d="m133.2 10.7-4.4 7.7c-.1.1-.2.1-.3.2h-8.8c-.1 0-.2-.1-.3-.1l-4.4-7.7v-.3l4.4-7.7c.1-.1.2-.1.3-.2h8.8c.1 0 .2.1.3.1l4.4 7.7v.3zm-2.5-9.3c-.4-.7-1.3-1.2-2.1-1.2h-9.1c-.8 0-1.7.6-2.1 1.2l-4.5 8c-.4.7-.4 1.8 0 2.5l4.5 8c.4.7 1.3 1.2 2.1 1.2h9.1c.8 0 1.7-.6 2.1-1.2l4.5-8c.4-.7.4-1.8 0-2.5l-4.5-8zm-9.1 9.2c0 1.4 1.2 2.4 2.6 2.4 1.3 0 2.4-1.1 2.4-2.4 0-1.4-1.2-2.4-2.6-2.4-1.3 0-2.3 1.1-2.4 2.4zm54.8 8c-.9-.2-1.7-.7-2.3-1.5-.4-.5-3-4-3.5-4.6 3.3-.6 5.6-3.1 5.6-6.1v-.1c0-1.6-.6-3.1-1.6-4.1-1.3-1.3-3.4-2.1-5.8-2.1h-7.6c-.7 0-1.3.6-1.3 1.3v18.3c0 .7.6 1.3 1.3 1.3.7 0 1.3-.6 1.3-1.3v-6.8h5.3c.8 1 3.7 4.9 4.3 5.7.9 1.2 2.3 2.1 3.8 2.4.7.1 1.4-.3 1.5-1 .1-.6-.3-1.3-1-1.4zm-2.8-12.2c0 2.5-2 4.1-5.1 4.1h-6.1v-8h6.1c3.2 0 5.1 1.5 5.1 3.9zm-68.8 3.7c1.4-.7 3-2.1 3-4.7 0-1.3-.5-2.4-1.3-3.4-1.2-1.2-3.1-1.9-5.4-1.9h-7.5c-.7 0-1.3.6-1.3 1.3v18.2c0 .7.6 1.3 1.3 1.3h7.9c4.6 0 7.5-2.2 7.5-5.7v-.1c-.1-2.4-1.5-4-4.2-5zm-10-.8V2.5h6c2.7 0 4.4 1.2 4.4 3.2v.1c0 2.2-1.7 3.5-4.5 3.5h-5.9zm6.6 9.2h-6.7v-7h6.3c3.4 0 5.2 1.2 5.2 3.4v.1c.1 2.2-1.8 3.5-4.8 3.5zM149.1 1c-.3-.7-.8-1.1-1.5-1.1h-.1c-.7 0-1.2.4-1.6 1.1l-8.2 18.2c-.1.2-.2.4-.2.7 0 .7.5 1.2 1.2 1.2.6 0 1-.3 1.2-.9l2.1-4.7h10.9l2.1 4.6c.3.6.7.9 1.3.9.7 0 1.2-.6 1.2-1.3 0-.2-.1-.4-.2-.6L149.1 1zm2.7 12.1h-8.9l4.4-10 4.5 10zm37.3-13h-5.9c-.7 0-1.3.6-1.3 1.3v18.2c0 .7.6 1.3 1.3 1.3h5.9c6.3 0 10.9-4.4 10.9-10.4v-.1c0-6-4.6-10.3-10.9-10.3zm0 18.3h-4.6v-16h4.6c4.9 0 8.3 3.3 8.3 8v.1c-.1 4.7-3.4 7.9-8.3 7.9zM36.5 17.1c-.4-.5-3-4-3.5-4.6 3.3-.6 5.6-3.1 5.6-6.1 0-1.7-.6-3.1-1.6-4.2C35.7.9 33.6.1 31.2.1h-7.6c-.7 0-1.3.6-1.3 1.3v18.3c0 .7.6 1.3 1.3 1.3.7 0 1.3-.6 1.3-1.3v-6.8h5.3c.7 1 3.7 4.9 4.3 5.7.9 1.2 2.3 2.1 3.8 2.4.7.1 1.3-.3 1.5-1 .1-.7-.3-1.4-1-1.5-.9-.1-1.7-.7-2.3-1.4zm-.4-10.7c0 2.5-2 4.1-5.1 4.1h-6.1v-8H31c3.2 0 5.1 1.5 5.1 3.9zM7.2.1H1.3C.6.1 0 .7 0 1.4v18.2c0 .7.6 1.3 1.3 1.3h5.9c6.3 0 10.9-4.4 10.9-10.4v-.1C18.1 4.5 13.5.1 7.2.1zm0 18.4H2.6v-16h4.6c4.9 0 8.3 3.3 8.3 8v.1c-.1 4.6-3.5 7.9-8.3 7.9zM54.6 1c-.3-.7-.8-1.1-1.5-1.1H53c-.7 0-1.2.4-1.6 1.1l-8.2 18.2c-.2.2-.2.4-.2.7 0 .7.5 1.2 1.2 1.2.6 0 1-.3 1.2-.9l2.1-4.7h10.9l2.1 4.6c.3.6.7.9 1.3.9.7 0 1.2-.6 1.2-1.3 0-.2-.1-.4-.2-.6L54.6 1zm2.8 12.1h-8.9l4.4-10 4.5 10zM86.6 0c-.6 0-1 .4-1.2 1L80 16.9l-3.1-9 2.1-6v-.1c.1-.1.1-.3.1-.5 0-.7-.6-1.3-1.3-1.3-.6 0-1 .4-1.2 1l-5.4 15.9-5.5-15.8C65.5.4 65 0 64.4 0c-.7 0-1.3.6-1.3 1.3 0 .2.1.4.1.6l6.2 17.4.3.8c.2.7.7 1.1 1.3 1.1h.2c.6 0 1.1-.4 1.3-1.1l.3-.8 2.7-7.6 2.7 7.6.3.8c.2.7.7 1.1 1.3 1.1h.2c.6 0 1.1-.4 1.3-1.1l.3-.8 6.2-17.5v-.1c.1-.1.1-.3.1-.5 0-.6-.6-1.2-1.3-1.2z" style="fill-rule:evenodd;clip-rule:evenodd;fill:#212730"/></svg>