<svg width="555" height="388" xmlns="http://www.w3.org/2000/svg" xmlns:xlink="http://www.w3.org/1999/xlink"><defs><rect id="g" x="0" y="0" width="345" height="134" rx="8"/><rect id="b" x="0" y="0" width="70" height="78" rx="8"/><rect id="a" x="0" y="0" width="70" height="78" rx="8"/><rect id="c" x="0" y="124" width="70" height="78" rx="8"/><rect id="j" x="0" y="0" width="345" height="134" rx="8"/><rect id="m" x="0" y="96" width="345" height="134" rx="8"/><filter x="-7.5%" y="-16.4%" width="115.1%" height="138.8%" filterUnits="objectBoundingBox" id="f"><feOffset dy="4" in="SourceAlpha" result="shadowOffsetOuter1"/><feGaussianBlur stdDeviation="8" in="shadowOffsetOuter1" result="shadowBlurOuter1"/><feComposite in="shadowBlurOuter1" in2="SourceAlpha" operator="out" result="shadowBlurOuter1"/><feColorMatrix values="0 0 0 0 0 0 0 0 0 0 0 0 0 0 0 0 0 0 0.09 0" in="shadowBlurOuter1"/></filter><filter x="-7.5%" y="-16.4%" width="115.1%" height="138.8%" filterUnits="objectBoundingBox" id="i"><feOffset dy="4" in="SourceAlpha" result="shadowOffsetOuter1"/><feGaussianBlur stdDeviation="8" in="shadowOffsetOuter1" result="shadowBlurOuter1"/><feComposite in="shadowBlurOuter1" in2="SourceAlpha" operator="out" result="shadowBlurOuter1"/><feColorMatrix values="0 0 0 0 0 0 0 0 0 0 0 0 0 0 0 0 0 0 0.09 0" in="shadowBlurOuter1"/></filter><filter x="-7.5%" y="-16.4%" width="115.1%" height="138.8%" filterUnits="objectBoundingBox" id="l"><feOffset dy="4" in="SourceAlpha" result="shadowOffsetOuter1"/><feGaussianBlur stdDeviation="8" in="shadowOffsetOuter1" result="shadowBlurOuter1"/><feComposite in="shadowBlurOuter1" in2="SourceAlpha" operator="out" result="shadowBlurOuter1"/><feColorMatrix values="0 0 0 0 0 0 0 0 0 0 0 0 0 0 0 0 0 0 0.09 0" in="shadowBlurOuter1"/></filter><mask id="k" maskContentUnits="userSpaceOnUse" maskUnits="objectBoundingBox" x="0" y="0" width="70" height="78" fill="#fff"><use xlink:href="#b"/></mask><mask id="h" maskContentUnits="userSpaceOnUse" maskUnits="objectBoundingBox" x="0" y="0" width="70" height="78" fill="#fff"><use xlink:href="#a"/></mask><mask id="n" maskContentUnits="userSpaceOnUse" maskUnits="objectBoundingBox" x="0" y="0" width="70" height="78" fill="#fff"><use xlink:href="#c"/></mask><linearGradient x1="50%" y1="0%" x2="50%" y2="100%" id="o"><stop stop-color="#FFF" stop-opacity="0" offset="0%"/><stop stop-color="#FFF" offset="100%"/></linearGradient><path id="d" d="M0 0h555v388H0z"/></defs><g fill="none" fill-rule="evenodd"><mask id="e" fill="#fff"><use xlink:href="#d"/></mask><use fill-opacity=".01" fill="#FFF" xlink:href="#d"/><g mask="url(#e)"><g transform="translate(140 18)"><use fill="#000" filter="url(#f)" xlink:href="#g"/><rect stroke="#EBF2FE" stroke-width="2" stroke-linejoin="square" fill="#FFF" x="1" y="1" width="343" height="132" rx="8"/></g><path d="M272.784 58v-4.736h2.72c2.064 0 3.184-1.2 3.184-3.216s-1.12-3.216-3.184-3.216h-4.064V58h1.344Zm2.688-5.904h-2.688V48h2.688c1.12 0 1.792.592 1.792 1.632v.832c0 1.04-.672 1.632-1.792 1.632ZM287.728 58v-1.088h-3.2v-3.568c0-1.28.848-2.32 2.464-2.32h1.552v-1.28h-1.152c-1.728 0-2.464.992-2.784 2.08h-.08v-2.08h-3.696v1.088h2.416v6.08h-2.416V58h6.896Zm6.272.192c2.32 0 3.744-1.696 3.744-4.32 0-2.624-1.424-4.32-3.744-4.32-2.32 0-3.744 1.696-3.744 4.32 0 2.624 1.424 4.32 3.744 4.32Zm0-1.104c-1.424 0-2.384-.848-2.384-2.624V53.28c0-1.776.96-2.624 2.384-2.624s2.384.848 2.384 2.624v1.184c0 1.776-.96 2.624-2.384 2.624Zm17.184.912v-4.736h2.72c2.064 0 3.184-1.2 3.184-3.216s-1.12-3.216-3.184-3.216h-4.064V58h1.344Zm2.688-5.904h-2.688V48h2.688c1.12 0 1.792.592 1.792 1.632v.832c0 1.04-.672 1.632-1.792 1.632ZM326.32 58v-1.088h-2.88V46.16h-4.16v1.088h2.88v9.664h-2.88V58h7.04Zm5.168.192c1.344 0 2.128-.592 2.48-1.536h.08c.096.768.48 1.344 1.472 1.344h.88v-1.12h-1.152v-4.544c0-1.744-1.232-2.784-3.168-2.784-1.68 0-2.736.8-3.152 1.664l.864.64c.432-.752 1.104-1.216 2.208-1.216 1.248 0 1.968.624 1.968 1.824v.816h-1.76c-2.48 0-3.552.88-3.552 2.4 0 1.552 1.104 2.512 2.832 2.512Zm.224-1.072c-1.056 0-1.712-.448-1.712-1.296v-.336c0-.8.688-1.248 2.208-1.248h1.76v1.36c0 .848-.944 1.52-2.256 1.52Zm8.336.88v-5.728c0-1.088 1.024-1.584 2.048-1.584 1.264 0 1.952.736 1.952 2.24V58h1.28v-5.296c0-2-1.136-3.152-2.864-3.152-1.36 0-2 .72-2.352 1.536h-.064v-1.344h-1.28V58h1.28Zm18.672 0v-9.136h.128l2.352 5.744 2.352-5.744h.128V58h1.232V46.832h-1.664l-1.968 4.928h-.096l-1.968-4.928h-1.728V58h1.232Zm12.08.192c2.32 0 3.744-1.696 3.744-4.32 0-2.624-1.424-4.32-3.744-4.32-2.32 0-3.744 1.696-3.744 4.32 0 2.624 1.424 4.32 3.744 4.32Zm0-1.104c-1.424 0-2.384-.848-2.384-2.624V53.28c0-1.776.96-2.624 2.384-2.624s2.384.848 2.384 2.624v1.184c0 1.776-.96 2.624-2.384 2.624Zm7.648.912v-5.728c0-1.088 1.024-1.584 2.048-1.584 1.264 0 1.952.736 1.952 2.24V58h1.28v-5.296c0-2-1.136-3.152-2.864-3.152-1.36 0-2 .72-2.352 1.536h-.064v-1.344h-1.28V58h1.28Zm15.168 0v-1.088h-3.76v-6.08h3.76v-1.088h-3.76v-2.912h-1.232v2.16c0 .56-.208.752-.752.752h-2.048v1.088h2.752v5.28c0 1.104.576 1.888 1.824 1.888h3.216Zm4.032 0v-5.728c0-1.088 1.024-1.584 2.048-1.584 1.264 0 1.952.736 1.952 2.24V58h1.28v-5.296c0-2-1.136-3.152-2.864-3.152-1.36 0-2 .72-2.352 1.536h-.064V46.16h-1.28V58h1.28Zm15.072 0v-1.088h-2.88V46.16h-4.16v1.088h2.88v9.664h-2.88V58h7.04Zm3.824 3.2c1.248 0 1.728-.448 2.112-1.392l4.096-10.064h-1.28L420.08 53.2l-1.232 3.136h-.064l-1.232-3.136-1.392-3.456h-1.312l3.328 8.096-.928 2.272h-1.92V61.2h1.216ZM275.456 86.808v-1.632c2.16-.176 3.376-1.376 3.376-3.232 0-1.504-.72-2.752-2.912-3.12l-.48-.08v-3.92c1.056.112 1.76.592 2.336 1.36l1.008-.72c-.8-1.088-1.856-1.696-3.328-1.808v-1.632h-.992v1.632c-2.016.144-3.264 1.232-3.264 3.024 0 1.456.704 2.736 2.912 3.104l.368.064v4.176c-1.12-.112-1.936-.64-2.704-1.6l-.976.8c.768 1.072 1.888 1.84 3.664 1.952v1.632h.992Zm-.976-8.224c-1.424-.288-1.984-.864-1.984-1.904 0-1.104.72-1.744 1.984-1.872v3.776Zm.96 5.424v-4c1.488.256 2.096.816 2.096 1.952 0 1.168-.752 1.904-2.096 2.048Zm8.88 1.184c2.384 0 3.808-1.52 3.808-3.696 0-2.16-1.424-3.44-3.376-3.44-1.184 0-1.792.464-2.336 1.216h-.112l.32-4.272h4.992v-1.168h-6.08l-.4 6.144 1.136.16c.48-.528.992-.944 2.048-.944 1.552 0 2.416.88 2.416 2.352v.128c0 1.456-.848 2.352-2.384 2.352-1.376 0-1.984-.624-2.576-1.504l-1.008.768c.688.96 1.664 1.904 3.552 1.904Zm9.408-.192c1.824-1.168 4.048-3.76 4.048-7.072 0-2.656-1.44-4.288-3.792-4.288-2.272 0-3.76 1.504-3.76 3.696 0 2.112 1.392 3.44 3.344 3.44 1.392 0 2.208-.688 2.752-1.6l.08.032c-.624 2.592-1.968 4.048-4.4 5.792h1.728Zm.272-5.328c-1.52 0-2.416-.88-2.416-2.384v-.128c0-1.504.896-2.384 2.416-2.384s2.416.88 2.416 2.384v.128c0 1.504-.896 2.384-2.416 2.384ZM303.328 85c1.824-1.168 4.048-3.76 4.048-7.072 0-2.656-1.44-4.288-3.792-4.288-2.272 0-3.76 1.504-3.76 3.696 0 2.112 1.392 3.44 3.344 3.44 1.392 0 2.208-.688 2.752-1.6l.08.032c-.624 2.592-1.968 4.048-4.4 5.792h1.728Zm.272-5.328c-1.52 0-2.416-.88-2.416-2.384v-.128c0-1.504.896-2.384 2.416-2.384s2.416.88 2.416 2.384v.128c0 1.504-.896 2.384-2.416 2.384Zm9.6 5.472c.864 0 1.184-.416 1.184-.96v-.288c0-.544-.32-.96-1.184-.96-.864 0-1.184.416-1.184.96v.288c0 .544.32.96 1.184.96Zm9.6.048c2.72 0 3.904-2.128 3.904-5.776 0-3.648-1.184-5.776-3.904-5.776-2.72 0-3.904 2.128-3.904 5.776 0 3.648 1.184 5.776 3.904 5.776Zm0-1.168c-1.792 0-2.512-1.456-2.512-3.696v-1.824c0-2.24.72-3.696 2.512-3.696s2.512 1.456 2.512 3.696v1.824c0 2.24-.72 3.696-2.512 3.696Zm0-3.664c.736 0 .992-.336.992-.768v-.352c0-.432-.256-.768-.992-.768s-.992.336-.992.768v.352c0 .432.256.768.992.768Zm7.392 6.848 5.568-14.368h-1.152l-5.568 14.368h1.152ZM339.248 85v-6.064c0-.88.48-1.328 1.168-1.328.752 0 .992.464.992 1.872V85h1.184v-6.064c0-.88.48-1.328 1.152-1.328.768 0 1.008.464 1.008 1.872V85h1.184v-5.728c0-1.744-.352-2.72-1.696-2.72-.976 0-1.488.544-1.792 1.296h-.048c-.096-.768-.56-1.296-1.504-1.296-.912 0-1.328.512-1.584 1.152h-.064v-.96h-1.184V85h1.184Zm12.352.192c2.32 0 3.744-1.696 3.744-4.32 0-2.624-1.424-4.32-3.744-4.32-2.32 0-3.744 1.696-3.744 4.32 0 2.624 1.424 4.32 3.744 4.32Zm0-1.104c-1.424 0-2.384-.848-2.384-2.624V80.28c0-1.776.96-2.624 2.384-2.624s2.384.848 2.384 2.624v1.184c0 1.776-.96 2.624-2.384 2.624Zm7.648.912v-5.728c0-1.088 1.024-1.584 2.048-1.584 1.264 0 1.952.736 1.952 2.24V85h1.28v-5.296c0-2-1.136-3.152-2.864-3.152-1.36 0-2 .72-2.352 1.536h-.064v-1.344h-1.28V85h1.28Zm15.168 0v-1.088h-3.76v-6.08h3.76v-1.088h-3.76v-2.912h-1.232v2.16c0 .56-.208.752-.752.752h-2.048v1.088h2.752v5.28c0 1.104.576 1.888 1.824 1.888h3.216Zm4.032 0v-5.728c0-1.088 1.024-1.584 2.048-1.584 1.264 0 1.952.736 1.952 2.24V85h1.28v-5.296c0-2-1.136-3.152-2.864-3.152-1.36 0-2 .72-2.352 1.536h-.064V73.16h-1.28V85h1.28Z" fill="#00000B" fill-rule="nonzero"/><g transform="translate(269 101)"><rect fill="#FFDD4D" width="87" height="27" rx="13.5"/><g fill="#00000A" fill-rule="nonzero"><path d="M15.714 19h2.857V9h-2.857M10 19h2.857V9H10v10ZM29.436 18v-4.144h2.38c1.806 0 2.786-1.05 2.786-2.814s-.98-2.814-2.786-2.814H28.26V18h1.176Zm2.352-5.166h-2.352V9.25h2.352c.98 0 1.568.518 1.568 1.428v.728c0 .91-.588 1.428-1.568 1.428Zm7.014 5.334c1.176 0 1.862-.518 2.17-1.344h.07c.084.672.42 1.176 1.288 1.176h.77v-.98h-1.008v-3.976c0-1.526-1.078-2.436-2.772-2.436-1.47 0-2.394.7-2.758 1.456l.756.56c.378-.658.966-1.064 1.932-1.064 1.092 0 1.722.546 1.722 1.596v.714h-1.54c-2.17 0-3.108.77-3.108 2.1 0 1.358.966 2.198 2.478 2.198Zm.196-.938c-.924 0-1.498-.392-1.498-1.134v-.294c0-.7.602-1.092 1.932-1.092h1.54v1.19c0 .742-.826 1.33-1.974 1.33Zm8.596.938c1.19 0 1.75-.63 2.058-1.344h.056V18h1.12v-7.224h-1.12v5.012c0 .952-.896 1.386-1.792 1.386-1.106 0-1.708-.644-1.708-1.96v-4.438h-1.12v4.634c0 1.75.994 2.758 2.506 2.758Zm8.89 0c1.848 0 3.052-.826 3.052-2.254 0-1.568-1.442-1.848-2.478-2.002l-1.134-.168c-.644-.098-1.274-.294-1.274-1.05 0-.742.63-1.148 1.764-1.148 1.274 0 1.918.504 2.254.91l.728-.686c-.686-.728-1.638-1.162-2.94-1.162-1.68 0-2.912.714-2.912 2.156 0 1.568 1.456 1.848 2.478 2.002l1.134.168c.658.098 1.274.294 1.274 1.05 0 .854-.798 1.246-1.918 1.246-1.148 0-1.932-.406-2.618-1.134l-.756.658c.756.854 1.834 1.414 3.346 1.414Zm8.442 0c1.428 0 2.464-.7 2.898-1.666l-.826-.56c-.378.784-1.106 1.26-2.072 1.26-1.358 0-2.212-.924-2.212-2.198v-.336h5.348v-.532c0-2.044-1.26-3.528-3.206-3.528-1.96 0-3.318 1.484-3.318 3.794 0 2.282 1.316 3.766 3.388 3.766Zm1.932-4.34h-4.144v-.098c0-1.26.91-2.198 2.142-2.198 1.19 0 2.002.868 2.002 2.142v.154Zm5.81 4.34c1.008 0 1.764-.462 2.226-1.344h.056V18h1.12V7.64h-1.12v4.312h-.056c-.462-.882-1.218-1.344-2.226-1.344-1.764 0-2.828 1.414-2.828 3.78 0 2.366 1.064 3.78 2.828 3.78Zm.434-.994c-1.302 0-2.058-.868-2.058-2.17v-1.232c0-1.302.756-2.17 2.058-2.17.994 0 1.848.518 1.848 1.484v2.604c0 .966-.854 1.484-1.848 1.484Z"/></g></g><g transform="translate(176 46)"><use stroke="#B6C8DE" mask="url(#h)" stroke-width="2" fill="#FFF" stroke-dasharray="3,3" xlink:href="#a"/><g fill="#00000A" fill-rule="nonzero"><path d="M16.094 36.36v-.224h-1.442l.854-2.632h3.22l1.106 2.632h-1.148v.224h5.152v-.224h-.644L18.754 26h-.728l-4.452 10.136H13v.224h3.094Zm2.52-3.108h-3.038l1.316-4.06 1.722 4.06ZM28.82 36.64c1.694 0 3.22-.868 3.892-2.072l-.014-.014c-.266.126-.756.182-1.148.182-2.982 0-5.894-2.926-5.894-6.496 0-1.12.476-1.596 1.092-1.596.994 0 2.114.938 4.242 5.096h.014l1.232-4.886C31.214 26.322 30.01 26 28.568 26c-3.066 0-5.082 1.974-5.082 4.984 0 3.304 2.114 5.656 5.334 5.656Zm10.864-.21 2.954-8.876 1.106 8.582h-1.4v.224h5.558v-.224h-1.064l-1.148-9.1 1.26-.756h-4.732l-1.554 6.426-2.45-6.426H33.93l1.26.756v.014l-1.232 9.086h-.896v.224h3.402v-.224h-1.442l.378-8.596 3.514 8.89h.77Zm17.416-.07v-3.5h-.014c-1.316 2.436-2.73 3.248-4.382 3.276V31.18c.91.042 1.848.77 2.38 1.862h.014v-3.906h-.014c-.518 1.064-1.498 1.806-2.38 1.848v-4.48c1.652.014 3.066.868 4.382 3.276h.014v-3.5h-8.722l1.246.756v9.1h-1.12v.224H57.1Z"/><path d="M26.29 49.5c.924 0 1.666-.336 2.198-.812l-.266-.49c-.42.238-.77.336-1.218.336-.966 0-1.876-.784-1.876-2.534 0-1.246.378-1.918 1.092-1.918.294 0 .518.112.77.322l1.064 1.428h.182v-2.254a4.78 4.78 0 0 0-1.638-.308c-1.96 0-3.178 1.428-3.178 3.262 0 1.792 1.12 2.968 2.87 2.968Zm5.712 0c1.778 0 3.052-1.288 3.052-3.192 0-1.904-1.246-3.038-2.884-3.038-1.82 0-3.052 1.414-3.052 3.262 0 1.792 1.176 2.968 2.884 2.968Zm.28-.826c-.84 0-1.456-1.12-1.456-2.716 0-1.148.406-1.82 1.064-1.82.84 0 1.456 1.12 1.456 2.716 0 1.148-.406 1.82-1.064 1.82Zm6.818.686v-.896h-.84l-.07-.07v-3.458c.154-.014.308-.028.462-.028.63 0 1.204.084 1.75.238V43.34a.994.994 0 0 0-.406-.07c-.532 0-1.162.406-1.848 1.036l-.182-1.008-.182-.098-2.1 1.078v.182l.896.546v3.388l-.07.07h-.63v.896h3.22Zm5.026 3.22v-.896h-.84l-.07-.07V49.29c.308.14.658.21 1.05.21 1.764 0 3.024-1.442 3.024-3.29 0-1.736-.91-2.94-2.142-2.94-.714 0-1.302.378-1.974.896l-.182-.868-.182-.098-2.1 1.078v.182l.896.546v6.608l-.07.07h-.63v.896h3.22Zm.196-3.92c-.476 0-.868-.252-1.106-.672V44.6c.364-.084.644-.126.994-.126.826 0 1.372.714 1.372 2.114 0 1.274-.42 2.072-1.26 2.072Z" opacity=".4"/></g></g><g transform="translate(140 164)"><use fill="#000" filter="url(#i)" xlink:href="#j"/><rect stroke="#EBF2FE" stroke-width="2" stroke-linejoin="square" fill="#FFF" x="1" y="1" width="343" height="132" rx="8"/></g><path d="M275.68 204c1.728 0 3.008-1.408 3.008-3.216 0-1.552-.912-2.336-2.16-2.624v-.048c1.024-.32 1.744-1.072 1.744-2.4 0-1.744-1.168-2.88-3.072-2.88h-3.792V204h4.272Zm-.624-6.32h-2.304V194h2.304c1.12 0 1.808.512 1.808 1.536v.624c0 1.024-.688 1.52-1.808 1.52Zm.224 5.152h-2.528v-4.048h2.528c1.232 0 1.984.576 1.984 1.696v.656c0 1.136-.752 1.696-1.984 1.696Zm8.208 1.36c1.344 0 2.128-.592 2.48-1.536h.08c.096.768.48 1.344 1.472 1.344h.88v-1.12h-1.152v-4.544c0-1.744-1.232-2.784-3.168-2.784-1.68 0-2.736.8-3.152 1.664l.864.64c.432-.752 1.104-1.216 2.208-1.216 1.248 0 1.968.624 1.968 1.824v.816h-1.76c-2.48 0-3.552.88-3.552 2.4 0 1.552 1.104 2.512 2.832 2.512Zm.224-1.072c-1.056 0-1.712-.448-1.712-1.296v-.336c0-.8.688-1.248 2.208-1.248h1.76v1.36c0 .848-.944 1.52-2.256 1.52Zm10.384 1.072c2.112 0 3.488-.944 3.488-2.576 0-1.792-1.648-2.112-2.832-2.288l-1.296-.192c-.736-.112-1.456-.336-1.456-1.2 0-.848.72-1.312 2.016-1.312 1.456 0 2.192.576 2.576 1.04l.832-.784c-.784-.832-1.872-1.328-3.36-1.328-1.92 0-3.328.816-3.328 2.464 0 1.792 1.664 2.112 2.832 2.288l1.296.192c.752.112 1.456.336 1.456 1.2 0 .976-.912 1.424-2.192 1.424-1.312 0-2.208-.464-2.992-1.296l-.864.752c.864.976 2.096 1.616 3.824 1.616Zm10.016-10.272c.736 0 1.008-.352 1.008-.816v-.256c0-.464-.272-.816-1.008-.816s-1.008.352-1.008.816v.256c0 .464.272.816 1.008.816Zm3.424 10.08v-1.088h-2.784v-7.168h-4.256v1.088h2.976v6.08h-2.976V204h7.04Zm5.952.192c1.648 0 2.688-.816 3.168-1.92l-.912-.624c-.416.896-1.136 1.44-2.24 1.44-1.552 0-2.384-1.056-2.384-2.512v-1.408c0-1.456.848-2.512 2.352-2.512 1.024 0 1.728.496 2.032 1.344l1.024-.544c-.464-1.12-1.456-1.904-3.056-1.904-2.336 0-3.728 1.696-3.728 4.32 0 2.608 1.376 4.32 3.744 4.32ZM329.92 204v-9.136h.128l2.352 5.744 2.352-5.744h.128V204h1.232v-11.168h-1.664l-1.968 4.928h-.096l-1.968-4.928h-1.728V204h1.232Zm12.08.192c2.32 0 3.744-1.696 3.744-4.32 0-2.624-1.424-4.32-3.744-4.32-2.32 0-3.744 1.696-3.744 4.32 0 2.624 1.424 4.32 3.744 4.32Zm0-1.104c-1.424 0-2.384-.848-2.384-2.624v-1.184c0-1.776.96-2.624 2.384-2.624s2.384.848 2.384 2.624v1.184c0 1.776-.96 2.624-2.384 2.624Zm7.648.912v-5.728c0-1.088 1.024-1.584 2.048-1.584 1.264 0 1.952.736 1.952 2.24V204h1.28v-5.296c0-2-1.136-3.152-2.864-3.152-1.36 0-2 .72-2.352 1.536h-.064v-1.344h-1.28V204h1.28Zm15.168 0v-1.088h-3.76v-6.08h3.76v-1.088h-3.76v-2.912h-1.232v2.16c0 .56-.208.752-.752.752h-2.048v1.088h2.752v5.28c0 1.104.576 1.888 1.824 1.888h3.216Zm4.032 0v-5.728c0-1.088 1.024-1.584 2.048-1.584 1.264 0 1.952.736 1.952 2.24V204h1.28v-5.296c0-2-1.136-3.152-2.864-3.152-1.36 0-2 .72-2.352 1.536h-.064v-4.928h-1.28V204h1.28Zm15.072 0v-1.088h-2.88V192.16h-4.16v1.088h2.88v9.664h-2.88V204h7.04Zm3.824 3.2c1.248 0 1.728-.448 2.112-1.392l4.096-10.064h-1.28l-1.392 3.456-1.232 3.136h-.064l-1.232-3.136-1.392-3.456h-1.312l3.328 8.096-.928 2.272h-1.92v1.088h1.216ZM275.456 232.808v-1.632c2.16-.176 3.376-1.376 3.376-3.232 0-1.504-.72-2.752-2.912-3.12l-.48-.08v-3.92c1.056.112 1.76.592 2.336 1.36l1.008-.72c-.8-1.088-1.856-1.696-3.328-1.808v-1.632h-.992v1.632c-2.016.144-3.264 1.232-3.264 3.024 0 1.456.704 2.736 2.912 3.104l.368.064v4.176c-1.12-.112-1.936-.64-2.704-1.6l-.976.8c.768 1.072 1.888 1.84 3.664 1.952v1.632h.992Zm-.976-8.224c-1.424-.288-1.984-.864-1.984-1.904 0-1.104.72-1.744 1.984-1.872v3.776Zm.96 5.424v-4c1.488.256 2.096.816 2.096 1.952 0 1.168-.752 1.904-2.096 2.048Zm13.008.992v-1.168h-2.944v-10h-2.096l-2.96 2.768.784.848 2.816-2.624h.112v9.008h-3.2V231h7.488Zm5.28 0c1.824-1.168 4.048-3.76 4.048-7.072 0-2.656-1.44-4.288-3.792-4.288-2.272 0-3.76 1.504-3.76 3.696 0 2.112 1.392 3.44 3.344 3.44 1.392 0 2.208-.688 2.752-1.6l.08.032c-.624 2.592-1.968 4.048-4.4 5.792h1.728Zm.272-5.328c-1.52 0-2.416-.88-2.416-2.384v-.128c0-1.504.896-2.384 2.416-2.384s2.416.88 2.416 2.384v.128c0 1.504-.896 2.384-2.416 2.384Zm9.328 5.328c1.824-1.168 4.048-3.76 4.048-7.072 0-2.656-1.44-4.288-3.792-4.288-2.272 0-3.76 1.504-3.76 3.696 0 2.112 1.392 3.44 3.344 3.44 1.392 0 2.208-.688 2.752-1.6l.08.032c-.624 2.592-1.968 4.048-4.4 5.792h1.728Zm.272-5.328c-1.52 0-2.416-.88-2.416-2.384v-.128c0-1.504.896-2.384 2.416-2.384s2.416.88 2.416 2.384v.128c0 1.504-.896 2.384-2.416 2.384Zm9.6 5.472c.864 0 1.184-.416 1.184-.96v-.288c0-.544-.32-.96-1.184-.96-.864 0-1.184.416-1.184.96v.288c0 .544.32.96 1.184.96Zm9.6.048c2.72 0 3.904-2.128 3.904-5.776 0-3.648-1.184-5.776-3.904-5.776-2.72 0-3.904 2.128-3.904 5.776 0 3.648 1.184 5.776 3.904 5.776Zm0-1.168c-1.792 0-2.512-1.456-2.512-3.696v-1.824c0-2.24.72-3.696 2.512-3.696s2.512 1.456 2.512 3.696v1.824c0 2.24-.72 3.696-2.512 3.696Zm0-3.664c.736 0 .992-.336.992-.768v-.352c0-.432-.256-.768-.992-.768s-.992.336-.992.768v.352c0 .432.256.768.992.768Zm7.392 6.848 5.568-14.368h-1.152l-5.568 14.368h1.152Zm9.056-2.208v-6.064c0-.88.48-1.328 1.168-1.328.752 0 .992.464.992 1.872V231h1.184v-6.064c0-.88.48-1.328 1.152-1.328.768 0 1.008.464 1.008 1.872V231h1.184v-5.728c0-1.744-.352-2.72-1.696-2.72-.976 0-1.488.544-1.792 1.296h-.048c-.096-.768-.56-1.296-1.504-1.296-.912 0-1.328.512-1.584 1.152h-.064v-.96h-1.184V231h1.184Zm12.352.192c2.32 0 3.744-1.696 3.744-4.32 0-2.624-1.424-4.32-3.744-4.32-2.32 0-3.744 1.696-3.744 4.32 0 2.624 1.424 4.32 3.744 4.32Zm0-1.104c-1.424 0-2.384-.848-2.384-2.624v-1.184c0-1.776.96-2.624 2.384-2.624s2.384.848 2.384 2.624v1.184c0 1.776-.96 2.624-2.384 2.624Zm7.648.912v-5.728c0-1.088 1.024-1.584 2.048-1.584 1.264 0 1.952.736 1.952 2.24V231h1.28v-5.296c0-2-1.136-3.152-2.864-3.152-1.36 0-2 .72-2.352 1.536h-.064v-1.344h-1.28V231h1.28Zm15.168 0v-1.088h-3.76v-6.08h3.76v-1.088h-3.76v-2.912h-1.232v2.16c0 .56-.208.752-.752.752h-2.048v1.088h2.752v5.28c0 1.104.576 1.888 1.824 1.888h3.216Zm4.032 0v-5.728c0-1.088 1.024-1.584 2.048-1.584 1.264 0 1.952.736 1.952 2.24V231h1.28v-5.296c0-2-1.136-3.152-2.864-3.152-1.36 0-2 .72-2.352 1.536h-.064v-4.928h-1.28V231h1.28Z" fill="#00000B" fill-rule="nonzero"/><g transform="translate(269 247)"><rect fill="#34CE9D" width="87" height="27" rx="13.5"/><g fill="#FFF" fill-rule="nonzero"><path d="M11 9.822v7.356a1 1 0 0 0 1.537.844l5.78-3.678a1 1 0 0 0 0-1.688l-5.78-3.678A1 1 0 0 0 11 9.822ZM28.652 18l.826-2.786h3.43L33.734 18h1.246l-2.996-9.772H30.43L27.434 18h1.218Zm3.976-3.808h-2.87l1.372-4.718h.126l1.372 4.718Zm7.224 3.976c1.442 0 2.352-.714 2.772-1.68l-.798-.546c-.364.784-.994 1.26-1.96 1.26-1.358 0-2.086-.924-2.086-2.198v-1.232c0-1.274.742-2.198 2.058-2.198.896 0 1.512.434 1.778 1.176l.896-.476c-.406-.98-1.274-1.666-2.674-1.666-2.044 0-3.262 1.484-3.262 3.78 0 2.282 1.204 3.78 3.276 3.78ZM51.164 18v-.952h-3.29v-5.32h3.29v-.952h-3.29V8.228h-1.078v1.89c0 .49-.182.658-.658.658h-1.792v.952h2.408v4.62c0 .966.504 1.652 1.596 1.652h2.814Zm5.684-8.82c.644 0 .882-.308.882-.714v-.224c0-.406-.238-.714-.882-.714s-.882.308-.882.714v.224c0 .406.238.714.882.714ZM59.844 18v-.952h-2.436v-6.272h-3.724v.952h2.604v5.32h-2.604V18h6.16Zm5.67 0 2.59-7.224h-1.106L65.962 13.8l-1.12 3.262h-.056l-1.12-3.262-1.036-3.024h-1.134L64.086 18h1.428Zm7.812.168c1.428 0 2.464-.7 2.898-1.666l-.826-.56c-.378.784-1.106 1.26-2.072 1.26-1.358 0-2.212-.924-2.212-2.198v-.336h5.348v-.532c0-2.044-1.26-3.528-3.206-3.528-1.96 0-3.318 1.484-3.318 3.794 0 2.282 1.316 3.766 3.388 3.766Zm1.932-4.34h-4.144v-.098c0-1.26.91-2.198 2.142-2.198 1.19 0 2.002.868 2.002 2.142v.154Z"/></g></g><use mask="url(#k)" xlink:href="#b" transform="translate(176 192)" fill="#FFF" stroke="#B6C8DE" stroke-dasharray="3,3" stroke-width="2"/><g transform="translate(140 214)"><use fill="#000" filter="url(#l)" xlink:href="#m"/><rect stroke="#EBF2FE" stroke-width="2" stroke-linejoin="square" fill="#FFF" x="1" y="97" width="343" height="132" rx="8"/></g><g fill="#00000B" fill-rule="nonzero"><path d="M272.784 350v-4.736h2.72c2.064 0 3.184-1.2 3.184-3.216s-1.12-3.216-3.184-3.216h-4.064V350h1.344Zm2.688-5.904h-2.688V340h2.688c1.12 0 1.792.592 1.792 1.632v.832c0 1.04-.672 1.632-1.792 1.632ZM287.728 350v-1.088h-3.2v-3.568c0-1.28.848-2.32 2.464-2.32h1.552v-1.28h-1.152c-1.728 0-2.464.992-2.784 2.08h-.08v-2.08h-3.696v1.088h2.416v6.08h-2.416V350h6.896Zm6.416.192c1.632 0 2.816-.8 3.312-1.904l-.944-.64c-.432.896-1.264 1.44-2.368 1.44-1.552 0-2.528-1.056-2.528-2.512v-.384h6.112v-.608c0-2.336-1.44-4.032-3.664-4.032-2.24 0-3.792 1.696-3.792 4.336 0 2.608 1.504 4.304 3.872 4.304Zm2.208-4.96h-4.736v-.112c0-1.44 1.04-2.512 2.448-2.512 1.36 0 2.288.992 2.288 2.448v.176Zm4.496 4.768v-6.064c0-.88.48-1.328 1.168-1.328.752 0 .992.464.992 1.872V350h1.184v-6.064c0-.88.48-1.328 1.152-1.328.768 0 1.008.464 1.008 1.872V350h1.184v-5.728c0-1.744-.352-2.72-1.696-2.72-.976 0-1.488.544-1.792 1.296H304c-.096-.768-.56-1.296-1.504-1.296-.912 0-1.328.512-1.584 1.152h-.064v-.96h-1.184V350h1.184Zm12.864-10.08c.736 0 1.008-.352 1.008-.816v-.256c0-.464-.272-.816-1.008-.816s-1.008.352-1.008.816v.256c0 .464.272.816 1.008.816Zm3.424 10.08v-1.088h-2.784v-7.168h-4.256v1.088h2.976v6.08h-2.976V350h7.04Zm5.2.192c1.36 0 2-.72 2.352-1.536h.064V350h1.28v-8.256h-1.28v5.728c0 1.088-1.024 1.584-2.048 1.584-1.264 0-1.952-.736-1.952-2.24v-5.072h-1.28v5.296c0 2 1.136 3.152 2.864 3.152Zm7.312-.192v-6.064c0-.88.48-1.328 1.168-1.328.752 0 .992.464.992 1.872V350h1.184v-6.064c0-.88.48-1.328 1.152-1.328.768 0 1.008.464 1.008 1.872V350h1.184v-5.728c0-1.744-.352-2.72-1.696-2.72-.976 0-1.488.544-1.792 1.296h-.048c-.096-.768-.56-1.296-1.504-1.296-.912 0-1.328.512-1.584 1.152h-.064v-.96h-1.184V350h1.184Zm19.04 0 .944-3.184h3.92l.944 3.184h1.424l-3.424-11.168h-1.776L347.296 350h1.392Zm4.544-4.352h-3.28l1.568-5.392h.144l1.568 5.392Zm6.016 4.352v-5.728c0-1.088 1.024-1.584 2.048-1.584 1.264 0 1.952.736 1.952 2.24V350h1.28v-5.296c0-2-1.136-3.152-2.864-3.152-1.36 0-2 .72-2.352 1.536h-.064v-1.344h-1.28V350h1.28Zm9.6 0v-5.728c0-1.088 1.024-1.584 2.048-1.584 1.264 0 1.952.736 1.952 2.24V350h1.28v-5.296c0-2-1.136-3.152-2.864-3.152-1.36 0-2 .72-2.352 1.536h-.064v-1.344h-1.28V350h1.28Zm11.088.192c1.36 0 2-.72 2.352-1.536h.064V350h1.28v-8.256h-1.28v5.728c0 1.088-1.024 1.584-2.048 1.584-1.264 0-1.952-.736-1.952-2.24v-5.072h-1.28v5.296c0 2 1.136 3.152 2.864 3.152Zm9.152 0c1.344 0 2.128-.592 2.48-1.536h.08c.096.768.48 1.344 1.472 1.344h.88v-1.12h-1.152v-4.544c0-1.744-1.232-2.784-3.168-2.784-1.68 0-2.736.8-3.152 1.664l.864.64c.432-.752 1.104-1.216 2.208-1.216 1.248 0 1.968.624 1.968 1.824v.816h-1.76c-2.48 0-3.552.88-3.552 2.4 0 1.552 1.104 2.512 2.832 2.512Zm.224-1.072c-1.056 0-1.712-.448-1.712-1.296v-.336c0-.8.688-1.248 2.208-1.248h1.76v1.36c0 .848-.944 1.52-2.256 1.52Zm13.808.88v-1.088h-2.88V338.16h-4.16v1.088h2.88v9.664h-2.88V350h7.04ZM275.656 386.784v-1.632c2.16-.176 3.376-1.376 3.376-3.232 0-1.504-.72-2.752-2.912-3.12l-.48-.08v-3.92c1.056.112 1.76.592 2.336 1.36l1.008-.72c-.8-1.088-1.856-1.696-3.328-1.808V372h-.992v1.632c-2.016.144-3.264 1.232-3.264 3.024 0 1.456.704 2.736 2.912 3.104l.368.064V384c-1.12-.112-1.936-.64-2.704-1.6l-.976.8c.768 1.072 1.888 1.84 3.664 1.952v1.632h.992Zm-.976-8.224c-1.424-.288-1.984-.864-1.984-1.904 0-1.104.72-1.744 1.984-1.872v3.776Zm.96 5.424v-4c1.488.256 2.096.816 2.096 1.952 0 1.168-.752 1.904-2.096 2.048Zm13.008.992v-1.168h-2.944v-10h-2.096l-2.96 2.768.784.848 2.816-2.624h.112v9.008h-3.2v1.168h7.488Zm9.344 0v-1.168h-6.064l3.12-2.72c1.488-1.296 2.496-2.544 2.496-4.24 0-1.888-1.248-3.232-3.472-3.232-2.192 0-3.2 1.312-3.632 2.624l1.2.448c.352-1.152 1.04-1.904 2.4-1.904 1.376 0 2.096.768 2.096 2.112v.192c0 1.136-.784 2.176-1.872 3.152l-3.728 3.36v1.376h7.456Zm5.808.192c2.72 0 3.904-2.128 3.904-5.776 0-3.648-1.184-5.776-3.904-5.776-2.72 0-3.904 2.128-3.904 5.776 0 3.648 1.184 5.776 3.904 5.776Zm0-1.168c-1.792 0-2.512-1.456-2.512-3.696v-1.824c0-2.24.72-3.696 2.512-3.696s2.512 1.456 2.512 3.696v1.824c0 2.24-.72 3.696-2.512 3.696Zm0-3.664c.736 0 .992-.336.992-.768v-.352c0-.432-.256-.768-.992-.768s-.992.336-.992.768v.352c0 .432.256.768.992.768Zm9.6 4.832c2.72 0 3.904-2.128 3.904-5.776 0-3.648-1.184-5.776-3.904-5.776-2.72 0-3.904 2.128-3.904 5.776 0 3.648 1.184 5.776 3.904 5.776Zm0-1.168c-1.792 0-2.512-1.456-2.512-3.696v-1.824c0-2.24.72-3.696 2.512-3.696s2.512 1.456 2.512 3.696v1.824c0 2.24-.72 3.696-2.512 3.696Zm0-3.664c.736 0 .992-.336.992-.768v-.352c0-.432-.256-.768-.992-.768s-.992.336-.992.768v.352c0 .432.256.768.992.768Zm9.6 4.832c2.72 0 3.904-2.128 3.904-5.776 0-3.648-1.184-5.776-3.904-5.776-2.72 0-3.904 2.128-3.904 5.776 0 3.648 1.184 5.776 3.904 5.776Zm0-1.168c-1.792 0-2.512-1.456-2.512-3.696v-1.824c0-2.24.72-3.696 2.512-3.696s2.512 1.456 2.512 3.696v1.824c0 2.24-.72 3.696-2.512 3.696Zm0-3.664c.736 0 .992-.336.992-.768v-.352c0-.432-.256-.768-.992-.768s-.992.336-.992.768v.352c0 .432.256.768.992.768Zm9.6 4.784c.864 0 1.184-.416 1.184-.96v-.288c0-.544-.32-.96-1.184-.96-.864 0-1.184.416-1.184.96v.288c0 .544.32.96 1.184.96Zm9.6.048c2.72 0 3.904-2.128 3.904-5.776 0-3.648-1.184-5.776-3.904-5.776-2.72 0-3.904 2.128-3.904 5.776 0 3.648 1.184 5.776 3.904 5.776Zm0-1.168c-1.792 0-2.512-1.456-2.512-3.696v-1.824c0-2.24.72-3.696 2.512-3.696s2.512 1.456 2.512 3.696v1.824c0 2.24-.72 3.696-2.512 3.696Zm0-3.664c.736 0 .992-.336.992-.768v-.352c0-.432-.256-.768-.992-.768s-.992.336-.992.768v.352c0 .432.256.768.992.768Zm7.392 6.848 5.568-14.368h-1.152l-5.568 14.368h1.152Zm9.552.992c1.248 0 1.728-.448 2.112-1.392l4.096-10.064h-1.28l-1.392 3.456-1.232 3.136h-.064l-1.232-3.136-1.392-3.456h-1.312l3.328 8.096-.928 2.272h-1.92v1.088h1.216Zm12-3.008c1.632 0 2.816-.8 3.312-1.904l-.944-.64c-.432.896-1.264 1.44-2.368 1.44-1.552 0-2.528-1.056-2.528-2.512v-.384h6.112v-.608c0-2.336-1.44-4.032-3.664-4.032-2.24 0-3.792 1.696-3.792 4.336 0 2.608 1.504 4.304 3.872 4.304Zm2.208-4.96h-4.736v-.112c0-1.44 1.04-2.512 2.448-2.512 1.36 0 2.288.992 2.288 2.448v.176Zm6.336 4.96c1.344 0 2.128-.592 2.48-1.536h.08c.096.768.48 1.344 1.472 1.344h.88v-1.12h-1.152v-4.544c0-1.744-1.232-2.784-3.168-2.784-1.68 0-2.736.8-3.152 1.664l.864.64c.432-.752 1.104-1.216 2.208-1.216 1.248 0 1.968.624 1.968 1.824v.816h-1.76c-2.48 0-3.552.88-3.552 2.4 0 1.552 1.104 2.512 2.832 2.512Zm.224-1.072c-1.056 0-1.712-.448-1.712-1.296v-.336c0-.8.688-1.248 2.208-1.248h1.76v1.36c0 .848-.944 1.52-2.256 1.52Zm13.616.88v-1.088h-3.2v-3.568c0-1.28.848-2.32 2.464-2.32h1.552v-1.28h-1.152c-1.728 0-2.464.992-2.784 2.08h-.08v-2.08h-3.696v1.088h2.416v6.08h-2.416v1.088h6.896Z"/></g><g transform="translate(176 214)"><use stroke="#B6C8DE" mask="url(#n)" stroke-width="2" fill="#FFF" stroke-dasharray="3,3" xlink:href="#c"/><path d="M19.986 160.867v-5.819h3.286V153.1H14v1.95h3.275v5.818h2.711Zm6.363.098c1.83 0 3.166-.504 3.79-1.375.297-.396.455-.89.455-1.474 0-.574-.158-1.079-.465-1.494-.623-.812-1.87-1.366-3.77-1.366-1.97 0-3.186.564-3.81 1.405-.306.386-.465.91-.465 1.455 0 .574.159 1.078.446 1.464.613.851 1.83 1.385 3.819 1.385Zm.02-1.662c-.782 0-1.356-.198-1.593-.544-.12-.168-.169-.396-.169-.633 0-.228.06-.456.208-.634.248-.326.762-.534 1.554-.534.781 0 1.306.208 1.543.524.139.169.198.406.198.644 0 .237-.069.475-.188.643-.237.346-.781.534-1.553.534Zm7.688 1.564v-1.495l.792-.574 1.692 2.069h2.9l-2.771-3.315 2.493-2.128h-2.83l-2.286 1.762V153h-2.503v7.867h2.513Zm10.162 1.78 3.9-7.223h-2.613c0 .05-1.663 3.305-1.663 3.345-.01-.04-1.77-3.305-1.77-3.345H39.41l3.068 5.492-.97 1.732h2.711Zm8.124-1.682c1.83 0 3.167-.504 3.79-1.375.297-.396.455-.89.455-1.474 0-.574-.158-1.079-.465-1.494-.623-.812-1.87-1.366-3.77-1.366-1.969 0-3.186.564-3.81 1.405-.306.386-.465.91-.465 1.455 0 .574.159 1.078.446 1.464.613.851 1.83 1.385 3.82 1.385Zm.02-1.662c-.782 0-1.356-.198-1.593-.544-.119-.168-.168-.396-.168-.633 0-.228.06-.456.208-.634.247-.326.761-.534 1.553-.534.782 0 1.306.208 1.544.524.138.169.198.406.198.644 0 .237-.07.475-.188.643-.238.346-.782.534-1.554.534Zm-33.584 12.981c1.9 0 2.81-.663 3.246-1.187l.06 1.078h1.058c0-.034-.007-.967-.01-1.853v-2.49h-4.66v1.098h3.502c0 1.434-1.197 2.256-3.018 2.256-2.078 0-3.215-.89-3.215-2.89 0-1.949.95-2.909 3.285-2.909 1.93 0 2.82.772 2.86 1.702h1.207c0-1.454-1.178-2.8-4.117-2.8s-4.492 1.474-4.492 4.007c0 2.593 1.672 3.988 4.294 3.988Zm8.767 0c1.02 0 2.138-.198 2.672-.98l.04.871h1.128c-.018-.017-.036-.152-.04-.78v-4.662h-1.158v3.127c0 .84-.87 1.415-2.167 1.415-1.177 0-1.969-.386-1.969-1.475 0-2.335-.01-3.067-.04-3.067h-1.187c.04.03.05.119.06 3.483 0 1.415.999 2.068 2.661 2.068Zm6.808-.109v-3.008c0-.99 1.079-1.514 2.207-1.514 1.306 0 1.94.505 1.94 1.484v.923c.002 1.9.017 2.105.073 2.115h1.133c-.04-.05-.05-.099-.05-3.285 0-1.286-.692-2.296-2.641-2.296-1.128 0-2.306.327-2.702 1.217v-1.078h-1.118v5.442h1.158Zm10.172.109c2.355 0 3.266-.613 3.266-1.722 0-1-.654-1.474-2.494-1.613-.287-.02-1.079-.099-1.375-.118-1.415-.129-1.692-.277-1.692-.644 0-.376.336-.633 1.998-.633 1.366 0 1.92.218 2.088.485.06.09.07.238.07.297h1.137c0-.1-.02-.346-.089-.534-.346-.871-1.336-1.227-3.225-1.227-2.098 0-3.088.633-3.088 1.612 0 .94.634 1.406 2.355 1.564.287.03 1.05.109 1.306.129 1.504.118 1.9.267 1.9.732 0 .435-.405.722-2.137.722-1.455 0-2.137-.148-2.315-.505a.92.92 0 0 1-.07-.326h-1.138c0 .138.02.297.06.465.267.95 1.217 1.316 3.443 1.316ZM26.506 10.696l1.456-.168 2.478-8.862c.168-.037.34-.089.518-.154.177-.065.345-.15.504-.252V.728h-3.528v.532c.41.215.803.35 1.176.406L27.99 6.44l-.322 1.848h-.028l-.476-1.82-1.988-5.74h-.826l-1.862 5.81-.49 1.89h-.028l-.294-1.82-1.302-4.942c.215-.047.422-.105.623-.175.2-.07.38-.147.539-.231V.728H17v.532c.15.093.308.175.476.245.168.07.35.124.546.161l2.73 9.03 1.47-.168 2.114-6.608 2.17 6.776Zm6.88-8.428c.355 0 .644-.093.868-.28.224-.187.336-.439.336-.756 0-.327-.112-.583-.336-.77-.224-.187-.513-.28-.868-.28s-.644.093-.868.28c-.224.187-.336.443-.336.77 0 .317.112.57.336.756.224.187.513.28.868.28Zm1.974 8.26v-.546a2.448 2.448 0 0 0-.42-.189 6.14 6.14 0 0 0-.504-.147V3.36h-.476a20.894 20.894 0 0 0-1.274.189 8.265 8.265 0 0 0-.665.147c-.21.056-.385.112-.525.168v.546l.924.112v5.124c-.177.047-.34.096-.49.147-.15.051-.294.114-.434.189v.546h3.864Zm3.982 0v-.546a2.715 2.715 0 0 0-.371-.203 2.496 2.496 0 0 0-.399-.133V5.754c.13-.392.324-.702.581-.931.257-.229.562-.343.917-.343.43 0 .728.166.896.497.168.331.252.791.252 1.379v3.29a5.01 5.01 0 0 0-.77.336v.546h3.71v-.546c-.243-.159-.55-.27-.924-.336V6.3c0-.579-.054-1.057-.161-1.435-.107-.378-.261-.679-.462-.903-.2-.224-.446-.38-.735-.469a3.341 3.341 0 0 0-.98-.133c-.56 0-1.036.142-1.428.427a2.8 2.8 0 0 0-.882 1.015h-.014V3.36h-.476c-.196.019-.413.044-.651.077a11.966 11.966 0 0 0-1.337.266 2.943 2.943 0 0 0-.476.161v.546l.924.112v5.124c-.383.103-.69.215-.924.336v.546h3.71Zm7.846.168c.243 0 .471-.042.686-.126.215-.084.406-.198.574-.343.168-.145.313-.31.434-.497a1.81 1.81 0 0 0 .252-.588h.056l.126 1.526h.476c.14-.019.315-.044.525-.077a12.97 12.97 0 0 0 1.295-.273c.205-.056.373-.117.504-.182v-.49l-.924-.112V0h-.476c-.159.028-.36.06-.602.098-.243.037-.49.077-.742.119-.252.042-.492.086-.721.133a2.881 2.881 0 0 0-.539.154v.546l1.064.112v2.464a10.3 10.3 0 0 1-.301-.105 1.367 1.367 0 0 0-.28-.07 5.246 5.246 0 0 0-.749-.049c-.523 0-.999.08-1.428.238-.43.159-.796.397-1.099.714a3.296 3.296 0 0 0-.707 1.169c-.168.462-.252 1.001-.252 1.617 0 1.204.24 2.098.721 2.681.48.583 1.183.875 2.107.875Zm.672-1.12c-.476 0-.817-.229-1.022-.686-.205-.457-.308-1.064-.308-1.82 0-.933.117-1.645.35-2.135.233-.49.62-.735 1.162-.735.27 0 .497.023.679.07.182.047.334.107.455.182v3.766c-.103.495-.266.845-.49 1.05-.224.205-.5.308-.826.308Zm-14.422 13.12c.672 0 1.27-.119 1.792-.357.523-.238.929-.506 1.218-.805.243.243.49.441.742.595.252.154.471.287.658.399h2.436v-.546l-.714-.336a16.997 16.997 0 0 1-.994-.616 9.194 9.194 0 0 1-.994-.77c.14-.15.28-.36.42-.63.14-.27.273-.579.399-.924a10.239 10.239 0 0 0 .539-2.296c.364-.065.672-.177.924-.336v-.546h-3.192v.546c.121.084.238.154.35.21.112.056.243.098.392.126.075.308.103.635.084.98-.019.345-.06.672-.126.98a5.47 5.47 0 0 1-.238.826 2.42 2.42 0 0 1-.252.518c-1.12-.999-2.002-1.941-2.646-2.828.224-.159.436-.334.637-.525.2-.191.378-.394.532-.609.154-.215.278-.443.371-.686.093-.243.14-.5.14-.77 0-.56-.21-.99-.63-1.288-.42-.299-.966-.448-1.638-.448-.392 0-.735.056-1.029.168a2.32 2.32 0 0 0-.742.441 1.795 1.795 0 0 0-.595 1.323c0 .345.084.695.252 1.05.168.355.369.658.602.91a6.768 6.768 0 0 0-.693.469c-.266.2-.516.441-.749.721-.233.28-.432.6-.595.959-.163.36-.245.754-.245 1.183 0 .355.07.705.21 1.05.14.345.355.656.644.931.29.275.66.5 1.113.672.453.173.992.259 1.617.259Zm.392-6.44a5.235 5.235 0 0 1-.609-.91 3.35 3.35 0 0 1-.217-.504 1.472 1.472 0 0 1-.084-.462c0-.27.072-.513.217-.728.145-.215.371-.322.679-.322.299 0 .52.091.665.273.145.182.226.404.245.665.019.392-.047.76-.196 1.106-.15.345-.383.64-.7.882Zm.35 5.39c-.317 0-.611-.058-.882-.175a2.137 2.137 0 0 1-.707-.49c-.2-.21-.357-.46-.469-.749a2.616 2.616 0 0 1-.168-.952c0-.41.06-.768.182-1.071.121-.303.317-.623.588-.959.13.224.308.495.532.812.224.317.474.644.749.98.275.336.567.667.875.994.308.327.611.616.91.868-.205.261-.455.45-.749.567a2.326 2.326 0 0 1-.861.175Zm-11.118 13.05c1.223 0 2.149-.254 2.779-.763.63-.509.945-1.23.945-2.163 0-.513-.112-.945-.336-1.295a3.645 3.645 0 0 0-.84-.917 6.74 6.74 0 0 0-1.099-.693c-.397-.2-.763-.404-1.099-.609a3.786 3.786 0 0 1-.84-.679 1.297 1.297 0 0 1-.336-.903c0-.392.135-.69.406-.896.27-.205.602-.308.994-.308.233 0 .46.023.679.07.22.047.385.098.497.154l.644 1.918h.574c.037-.14.077-.315.119-.525.042-.21.082-.434.119-.672a14.258 14.258 0 0 0 .14-1.365 5.64 5.64 0 0 0-1.323-.371 9.957 9.957 0 0 0-1.589-.119c-.467 0-.9.054-1.302.161-.401.107-.749.27-1.043.49-.294.22-.525.497-.693.833-.168.336-.252.733-.252 1.19 0 .532.11.978.329 1.337.22.36.497.67.833.931.336.261.695.488 1.078.679.383.191.742.385 1.078.581.336.196.614.41.833.644.22.233.329.523.329.868 0 .476-.17.847-.511 1.113-.34.266-.768.399-1.281.399-.308 0-.555-.044-.742-.133a1.554 1.554 0 0 1-.434-.287l-.574-2.058h-.574a9.348 9.348 0 0 0-.14.588c-.047.224-.091.46-.133.707-.042.247-.082.495-.119.742-.037.247-.06.478-.07.693.103.084.259.163.469.238a7.657 7.657 0 0 0 2.485.42Zm8.028 0c.579 0 1.099-.084 1.561-.252.462-.168.854-.41 1.176-.728.322-.317.567-.702.735-1.155.168-.453.252-.964.252-1.533 0-.532-.07-1.024-.21-1.477a2.929 2.929 0 0 0-.665-1.162 3.101 3.101 0 0 0-1.162-.756c-.471-.182-1.034-.273-1.687-.273-.579 0-1.097.084-1.554.252-.457.168-.847.41-1.169.728-.322.317-.57.702-.742 1.155a4.276 4.276 0 0 0-.259 1.533c0 .532.075 1.024.224 1.477.15.453.378.84.686 1.162.308.322.695.574 1.162.756.467.182 1.017.273 1.652.273Zm.196-.854c-.355 0-.644-.068-.868-.203a1.45 1.45 0 0 1-.532-.567 2.695 2.695 0 0 1-.273-.889 7.99 7.99 0 0 1-.077-1.155c0-.523.03-.964.091-1.323.06-.36.152-.649.273-.868.121-.22.27-.378.448-.476.177-.098.387-.147.63-.147.327 0 .597.068.812.203.215.135.385.324.511.567.126.243.215.537.266.882.051.345.077.733.077 1.162 0 .523-.03.964-.091 1.323-.06.36-.152.649-.273.868-.121.22-.266.378-.434.476a1.091 1.091 0 0 1-.56.147Zm7.594.686v-.546a2.715 2.715 0 0 0-.371-.203 2.496 2.496 0 0 0-.399-.133v-3.892c.13-.392.324-.702.581-.931.257-.229.562-.343.917-.343.43 0 .728.166.896.497.168.331.252.791.252 1.379v3.29a5.01 5.01 0 0 0-.77.336v.546h3.71v-.546c-.243-.159-.55-.27-.924-.336V30.3c0-.579-.054-1.057-.161-1.435-.107-.378-.261-.679-.462-.903-.2-.224-.446-.38-.735-.469a3.341 3.341 0 0 0-.98-.133c-.56 0-1.036.142-1.428.427a2.8 2.8 0 0 0-.882 1.015h-.014V27.36h-.476c-.196.019-.413.044-.651.077a11.966 11.966 0 0 0-1.337.266 2.943 2.943 0 0 0-.476.161v.546l.924.112v5.124c-.383.103-.69.215-.924.336v.546h3.71Zm7.608.168c.877 0 1.577-.184 2.1-.553.523-.369.784-.875.784-1.519 0-.364-.086-.677-.259-.938a2.696 2.696 0 0 0-.644-.679 5.369 5.369 0 0 0-.84-.511c-.303-.15-.583-.299-.84-.448a3.133 3.133 0 0 1-.644-.483.833.833 0 0 1-.042-1.162c.145-.163.357-.245.637-.245.15 0 .285.007.406.021.121.014.238.044.35.091l.588 1.428h.476c.103-.28.21-.59.322-.931.112-.34.187-.66.224-.959a5.34 5.34 0 0 0-1.141-.329 7.83 7.83 0 0 0-1.407-.119c-.364 0-.702.044-1.015.133a2.615 2.615 0 0 0-.805.371 1.803 1.803 0 0 0-.532.581 1.51 1.51 0 0 0-.196.763c0 .392.086.723.259.994.173.27.387.506.644.707.257.2.537.376.84.525.303.15.583.299.84.448.257.15.471.313.644.49a.873.873 0 0 1 .259.63c0 .28-.112.5-.336.658a1.255 1.255 0 0 1-.742.238 3.24 3.24 0 0 1-.357-.021.706.706 0 0 1-.343-.133l-.686-1.526h-.476c-.159.27-.308.579-.448.924-.14.345-.22.686-.238 1.022.345.168.756.299 1.232.392.476.093.938.14 1.386.14Z" fill="#00000A" fill-rule="nonzero"/></g></g><path fill="url(#o)" mask="url(#e)" d="M0 321h555v67H0z"/></g></svg>